<svg width="200" height="200" viewBox="0 0 200 200" fill="none" xmlns="http://www.w3.org/2000/svg">
<path d="M100 143.73C145.909 143.73 183.125 124.151 183.125 100C183.125 75.8487 145.909 56.2703 100 56.2703C54.0913 56.2703 16.875 75.8487 16.875 100C16.875 124.151 54.0913 143.73 100 143.73Z" fill="url(#paint0_radial_9_45)"/>
<path d="M100 140.482C144.115 140.482 179.877 122.357 179.877 99.9999C179.877 77.6424 144.115 59.5181 100 59.5181C55.885 59.5181 20.1228 77.6424 20.1228 99.9999C20.1228 122.357 55.885 140.482 100 140.482Z" fill="#6280B6"/>
<path d="M116.18 113.063L120.14 92.6732C120.704 90.9282 120.797 89.0651 120.409 87.2726C120.021 85.4802 119.166 83.8222 117.931 82.4666C114.484 80.0184 110.262 78.9102 106.056 79.3494H99.2103L101.176 69.2557C101.211 69.0677 101.205 68.8742 101.158 68.6889C101.11 68.5036 101.022 68.331 100.9 68.1836C100.778 68.0361 100.626 67.9174 100.452 67.8359C100.279 67.7544 100.09 67.712 99.8991 67.7119H90.3991C90.0974 67.7118 89.8051 67.8166 89.5722 68.0083C89.3394 68.2001 89.1804 68.4668 89.1225 68.7629L84.9128 90.411C84.5889 88.0964 83.6057 85.9239 82.0806 84.1529C80.3827 82.4524 78.3343 81.1428 76.0783 80.3152C73.8223 79.4876 71.4129 79.1621 69.0181 79.3613H50.7188C50.4171 79.3612 50.1248 79.466 49.8919 79.6577C49.659 79.8494 49.5001 80.1162 49.4422 80.4122L40.9278 124.231C40.892 124.419 40.8981 124.612 40.9457 124.798C40.9933 124.983 41.0812 125.156 41.2031 125.303C41.325 125.45 41.478 125.569 41.651 125.651C41.8241 125.732 42.0131 125.775 42.2044 125.775H51.7222C52.0239 125.775 52.3162 125.67 52.5491 125.478C52.7819 125.287 52.9409 125.02 52.9988 124.724L55.0591 114.125H62.1841C65.33 114.209 68.47 113.809 71.4941 112.938C74.0439 112.094 76.3756 110.697 78.3222 108.847C79.9174 107.394 81.2792 105.704 82.3597 103.836L80.6556 112.593C80.6198 112.781 80.6259 112.975 80.6735 113.16C80.7211 113.346 80.809 113.518 80.9309 113.666C81.0528 113.813 81.2058 113.932 81.3789 114.013C81.5519 114.095 81.7409 114.137 81.9322 114.137H91.4322C91.7339 114.137 92.0262 114.033 92.2591 113.841C92.4919 113.649 92.6509 113.382 92.7088 113.086L97.3816 89.0335H103.877C106.644 89.0335 107.44 89.5857 107.677 89.8232C107.915 90.0607 108.271 90.8028 107.826 93.2016L104.055 112.588C104.02 112.775 104.026 112.969 104.073 113.154C104.121 113.34 104.209 113.512 104.331 113.66C104.453 113.807 104.605 113.926 104.779 114.007C104.952 114.089 105.141 114.131 105.332 114.131H114.951C115.247 114.12 115.53 114.008 115.753 113.813C115.977 113.619 116.127 113.354 116.18 113.063ZM72.2719 96.2357C71.9815 98.7284 70.7982 101.032 68.941 102.719C66.608 104.171 63.8724 104.838 61.1332 104.625H56.9056L59.9635 88.885H65.4319C69.4516 88.885 71.0666 89.746 71.7197 90.4644C72.2179 91.3314 72.5249 92.2949 72.6202 93.2903C72.7154 94.2857 72.5967 95.2899 72.2719 96.2357Z" fill="white"/>
<path d="M156.679 84.1587C154.981 82.4583 152.933 81.1486 150.677 80.3211C148.421 79.4935 146.012 79.168 143.617 79.3672H125.264C124.962 79.3671 124.67 79.4719 124.437 79.6636C124.204 79.8553 124.045 80.122 123.988 80.4181L115.473 124.237C115.437 124.425 115.443 124.618 115.491 124.804C115.539 124.989 115.626 125.161 115.748 125.309C115.87 125.456 116.023 125.575 116.196 125.657C116.369 125.738 116.558 125.78 116.75 125.781H126.297C126.599 125.781 126.891 125.676 127.124 125.484C127.357 125.292 127.516 125.026 127.574 124.73L129.634 114.131H136.759C139.905 114.215 143.045 113.815 146.069 112.944C148.619 112.1 150.951 110.703 152.897 108.853C156.231 105.848 158.477 101.826 159.286 97.4112C159.925 95.1529 160.022 92.7758 159.569 90.473C159.116 88.1702 158.126 86.0069 156.679 84.1587ZM146.782 96.2356C146.491 98.7283 145.308 101.032 143.451 102.719C141.112 104.172 138.37 104.838 135.625 104.619H131.409L134.467 88.879H139.936C143.955 88.879 145.57 89.74 146.223 90.4584C146.723 91.3257 147.032 92.2901 147.128 93.2866C147.225 94.283 147.106 95.2886 146.782 96.2356Z" fill="white"/>
<path d="M65.4319 87.5787C66.7129 87.4174 68.0133 87.5117 69.2577 87.8562C70.5021 88.2007 71.6658 88.7884 72.6816 89.5855C73.337 90.5947 73.755 91.7393 73.9041 92.9333C74.0533 94.1274 73.9296 95.3397 73.5425 96.479C73.2031 99.2843 71.8469 101.868 69.7306 103.741C67.1783 105.384 64.1612 106.155 61.1331 105.937H55.3262L58.8887 87.5965L65.4319 87.5787ZM42.1747 124.486H51.7222L53.9844 112.837H62.1603C65.1697 112.919 68.1738 112.536 71.0666 111.703C73.4407 110.919 75.6108 109.617 77.4197 107.891C80.5508 105.074 82.6598 101.299 83.4166 97.1559C84.0157 95.0956 84.121 92.9231 83.7238 90.8146C83.3267 88.706 82.4383 86.7207 81.1306 85.0196C79.5539 83.46 77.6559 82.2632 75.569 81.5125C73.4822 80.7619 71.2567 80.4755 69.0478 80.6734H50.7187L42.1747 124.486Z" fill="#000004"/>
<path d="M90.4228 69.0181H99.9228L97.625 80.6674H106.062C109.937 80.2619 113.83 81.2467 117.047 83.4462C118.111 84.6561 118.839 86.1246 119.157 87.7045C119.474 89.2843 119.371 90.92 118.858 92.4474L114.897 112.837H105.284L109.055 93.4509C109.317 92.7109 109.411 91.9216 109.329 91.1408C109.247 90.36 108.991 89.6074 108.58 88.9384C107.205 87.9534 105.506 87.5288 103.83 87.7509H96.2594L91.3788 112.855H81.8788L90.4228 69.0181Z" fill="#000004"/>
<path d="M139.942 87.5787C141.223 87.4174 142.523 87.5117 143.767 87.8562C145.012 88.2007 146.175 88.7884 147.191 89.5855C147.847 90.5947 148.265 91.7393 148.414 92.9333C148.563 94.1274 148.439 95.3397 148.052 96.479C147.713 99.2843 146.357 101.868 144.24 103.741C141.683 105.388 138.659 106.159 135.625 105.937H129.818L133.381 87.5965L139.942 87.5787ZM116.684 124.486H126.232L128.494 112.837H136.67C139.679 112.919 142.683 112.536 145.576 111.703C147.95 110.919 150.12 109.617 151.929 107.891C155.061 105.074 157.169 101.299 157.926 97.1559C158.525 95.0956 158.631 92.9231 158.234 90.8146C157.836 88.706 156.948 86.7207 155.64 85.0196C154.064 83.46 152.166 82.2632 150.079 81.5125C147.992 80.7619 145.766 80.4755 143.558 80.6734H125.199L116.684 124.486Z" fill="#000004"/>
<defs>
<radialGradient id="paint0_radial_9_45" cx="0" cy="0" r="1" gradientUnits="userSpaceOnUse" gradientTransform="translate(66.7856 71.6484) scale(109.155 109.155)">
<stop stop-color="white"/>
<stop offset="0.5" stop-color="#4C6B96"/>
<stop offset="1" stop-color="#231F20"/>
</radialGradient>
</defs>
</svg>
