<svg width="200" height="200" viewBox="0 0 200 200" fill="none" xmlns="http://www.w3.org/2000/svg">
<g clip-path="url(#clip0_9_54)">
<path d="M99.4072 30.313C63.952 30.313 66.1661 45.6885 66.1661 45.6885L66.2056 61.6173H100.04V66.3999H52.7668C52.7668 66.3999 30.0791 63.8269 30.0791 99.6015C30.0791 135.376 49.8815 134.107 49.8815 134.107H61.6997V117.507C61.6997 117.507 61.0626 97.7043 81.1858 97.7043H114.743C114.743 97.7043 133.597 98.0091 133.597 79.483V48.8505C133.597 48.8505 136.459 30.313 99.4072 30.313ZM80.751 41.0245C84.1173 41.0244 86.838 43.7452 86.838 47.1114C86.838 50.4776 84.1173 53.1984 80.751 53.1984C77.3848 53.1984 74.6641 50.4776 74.6641 47.1114C74.6641 43.7452 77.3848 41.0245 80.751 41.0245Z" fill="url(#paint0_linear_9_54)"/>
<path d="M100.414 169.249C135.869 169.249 133.655 153.873 133.655 153.873L133.616 137.944H99.7817V133.162H147.054C147.054 133.162 169.742 135.735 169.742 99.9602C169.742 64.1857 149.94 65.4543 149.94 65.4543H138.122V82.0551C138.122 82.0551 138.759 101.857 118.635 101.857H85.0781C85.0781 101.857 66.2244 101.553 66.2244 120.079V150.711C66.2244 150.711 63.3618 169.249 100.414 169.249ZM119.07 158.537C115.704 158.537 112.983 155.817 112.983 152.45C112.983 149.084 115.704 146.363 119.07 146.363C122.436 146.363 125.157 149.084 125.157 152.45C125.157 155.817 122.436 158.537 119.07 158.537Z" fill="url(#paint1_linear_9_54)"/>
</g>
<defs>
<linearGradient id="paint0_linear_9_54" x1="1372.27" y1="1280" x2="8293.46" y2="8132.15" gradientUnits="userSpaceOnUse">
<stop stop-color="#387EB8"/>
<stop offset="1" stop-color="#366994"/>
</linearGradient>
<linearGradient id="paint1_linear_9_54" x1="2047.19" y1="2201.57" x2="9479.82" y2="9227.85" gradientUnits="userSpaceOnUse">
<stop stop-color="#FFE052"/>
<stop offset="1" stop-color="#FFC331"/>
</linearGradient>
<clipPath id="clip0_9_54">
<rect width="140" height="140" fill="white" transform="translate(30 30)"/>
</clipPath>
</defs>
</svg>
