<svg width="200" height="200" viewBox="0 0 200 200" fill="none" xmlns="http://www.w3.org/2000/svg">
<path d="M100.248 62.2031C133.189 36.6304 116.283 20 116.283 20C118.799 46.4369 89.065 52.6792 81.0945 70.846C75.656 83.2425 84.819 94.0965 100.238 107.777C98.8745 104.747 96.772 101.803 94.644 98.8225C87.3845 88.6565 79.8225 78.066 100.248 62.2031Z" fill="#E76F00"/>
<path d="M105.507 113.385C105.507 113.385 115.417 105.39 107.569 96.5041C80.9655 66.3594 136.666 52.6792 136.666 52.6792C102.658 69.0625 107.735 78.7871 116.283 90.601C125.435 103.269 105.507 113.385 105.507 113.385Z" fill="#E76F00"/>
<path d="M134.685 137.228C165.212 121.629 151.098 106.639 141.246 108.659C138.831 109.153 137.755 109.581 137.755 109.581C137.755 109.581 138.651 108.2 140.363 107.602C159.853 100.865 174.841 127.475 134.072 138.014C134.072 138.014 134.544 137.599 134.685 137.228Z" fill="#5382A1"/>
<path d="M71.165 117.484C52.0656 114.976 81.6375 108.069 81.6375 108.069C81.6375 108.069 70.1535 107.308 56.0296 114.021C39.3289 121.966 97.3405 125.579 127.37 117.812C130.492 115.716 134.807 113.899 134.807 113.899C134.807 113.899 122.519 116.057 110.281 117.072C95.306 118.306 79.2295 118.546 71.165 117.484Z" fill="#5382A1"/>
<path d="M78.432 132.379C67.7812 131.296 74.755 126.219 74.755 126.219C47.1949 135.214 90.089 145.415 128.599 134.341C124.506 132.922 121.903 130.326 121.903 130.326C103.081 133.89 92.205 133.776 78.432 132.379Z" fill="#5382A1"/>
<path d="M83.0725 148.496C72.43 147.293 78.6475 143.737 78.6475 143.737C53.6297 150.611 93.8645 164.813 125.717 151.389C120.5 149.394 116.764 147.091 116.764 147.091C102.556 149.735 95.9655 149.942 83.0725 148.496Z" fill="#5382A1"/>
<path d="M149.693 156.694C149.693 156.694 154.294 160.422 144.626 163.306C126.24 168.783 68.1047 170.437 51.9547 163.525C46.1492 161.041 57.0361 157.595 60.4607 156.871C64.0323 156.11 66.0733 156.252 66.0733 156.252C59.617 151.779 24.3424 165.034 48.1556 168.83C113.098 179.186 166.538 164.166 149.693 156.694Z" fill="#5382A1"/>
<path d="M160 164.84C158.934 178.474 113.938 181.342 84.637 179.497C65.5216 178.292 61.6906 175.279 61.6345 175.235C79.9295 178.201 110.774 178.741 135.784 174.113C157.951 170.008 160 164.84 160 164.84Z" fill="#5382A1"/>
</svg>
