<svg width="200" height="200" viewBox="0 0 200 200" fill="none" xmlns="http://www.w3.org/2000/svg">
<path d="M165.783 139.374C166.842 137.472 167.5 135.329 167.5 133.404V66.5948C167.5 64.6701 166.842 62.5273 165.783 60.625L100 100L165.783 139.374Z" fill="#7F3A86"/>
<path d="M105.847 177.306L161.656 143.901C163.264 142.939 164.725 141.277 165.784 139.375L100.002 100L34.2194 139.375C35.2787 141.277 36.7403 142.94 38.3475 143.901L94.1562 177.306C97.3709 179.231 102.633 179.231 105.847 177.306Z" fill="#662579"/>
<path d="M165.783 60.6248C164.724 58.7221 163.262 57.0604 161.655 56.0981L105.845 22.6935C102.631 20.7688 97.3692 20.7688 94.1545 22.6935L38.3456 56.0981C35.1303 58.0223 32.5 62.7461 32.5 66.5948V133.405C32.5 135.329 33.1578 137.473 34.2175 139.375L100 100L165.783 60.6248Z" fill="#9A5196"/>
<path d="M100.217 145C75.2843 145 55 124.813 55 100C55 75.187 75.2843 55 100.217 55C116.008 55 130.754 63.3008 138.919 76.7226L119.555 88.3366C115.464 81.64 108.099 77.5 100.217 77.5C87.7499 77.5 77.6086 87.5935 77.6086 100C77.6086 112.407 87.7499 122.5 100.217 122.5C108.079 122.5 115.424 118.383 119.523 111.718L138.928 123.264C130.764 136.694 116.013 145 100.217 145Z" fill="white"/>
<path fill-rule="evenodd" clip-rule="evenodd" d="M150.626 83.125V88.7354H139.374V83.125H133.751V88.7354H128.125V94.375H133.751V105.596H128.125V111.25H133.751V116.875H139.374L139.375 111.25H150.626V116.875H156.249V111.25H161.875V105.625H156.249V94.375H161.875V88.7354H156.249V83.125H150.626ZM150.626 105.625V94.375H139.374V105.596L150.626 105.625Z" fill="white"/>
</svg>
