<svg width="200" height="200" viewBox="0 0 200 200" fill="none" xmlns="http://www.w3.org/2000/svg">
<path d="M138.465 122.345L58.535 169.805L162.035 162.805L170 58.425L138.465 122.345Z" fill="url(#paint0_linear_9_59)"/>
<path d="M162.2 162.71L153.305 101.315L129.075 133.315L162.2 162.71Z" fill="url(#paint1_linear_9_59)"/>
<path d="M162.32 162.71L97.15 157.595L58.88 169.67L162.32 162.71Z" fill="url(#paint2_linear_9_59)"/>
<path d="M58.97 169.685L75.25 116.35L39.425 124L58.97 169.685Z" fill="url(#paint3_linear_9_59)"/>
<path d="M129.065 133.5L114.065 74.825L71.215 115L129.065 133.5Z" fill="url(#paint4_linear_9_59)"/>
<path d="M166.6 75.635L126.1 42.54L114.815 79.04L166.6 75.635Z" fill="url(#paint5_linear_9_59)"/>
<path d="M147.65 30.7401L123.815 43.9101L108.78 30.5601L147.65 30.7401Z" fill="url(#paint6_linear_9_59)"/>
<path d="M30 141.9L40 123.69L31.91 102L30 141.9Z" fill="url(#paint7_linear_9_59)"/>
<path d="M31.37 101.315L39.5 124.365L74.81 116.445L115.12 79.0001L126.5 42.8451L108.585 30.1951L78.13 41.5951C68.53 50.5001 49.91 68.1751 49.24 68.5001C48.57 68.8251 36.945 90.8201 31.37 101.31V101.315Z" fill="white"/>
<path d="M59.905 59.9049C80.7 39.2899 107.5 27.1049 117.795 37.4999C128.09 47.8949 117.175 73.1049 96.38 93.7199C75.585 114.335 49.105 127.17 38.825 116.79C28.545 106.41 39.11 80.4999 59.905 59.9049Z" fill="url(#paint8_linear_9_59)"/>
<path d="M58.97 169.665L75.125 116.165L128.77 133.4C109.375 151.59 87.8 166.96 58.97 169.665Z" fill="url(#paint9_linear_9_59)"/>
<path d="M115.19 78.8699L128.96 133.42C145.16 116.385 159.705 98.0699 166.825 75.4199L115.185 78.8749L115.19 78.8699Z" fill="url(#paint10_linear_9_59)"/>
<path d="M166.685 75.695C172.185 59.06 173.47 35.195 147.48 30.77L126.155 42.545L166.685 75.69V75.695Z" fill="url(#paint11_linear_9_59)"/>
<path d="M30 141.66C30.765 169.11 50.57 169.52 59 169.76L39.5 124.26L30 141.66Z" fill="#9E1209"/>
<path d="M115.265 78.9549C127.715 86.6099 152.81 101.955 153.315 102.26C159.169 94.1651 163.597 85.1303 166.41 75.5449L115.265 78.9549Z" fill="url(#paint12_radial_9_59)"/>
<path d="M75.105 116.16L96.7 157.82C108.462 151.268 119.215 143.05 128.625 133.42L75.125 116.16H75.105Z" fill="url(#paint13_radial_9_59)"/>
<path d="M39.435 124.305L36.375 160.74C42.15 168.625 50.09 169.31 58.42 168.695C52.395 153.695 40.35 123.695 39.42 124.305H39.435Z" fill="url(#paint14_linear_9_59)"/>
<path d="M126.03 42.64L168.93 48.64C166.64 38.94 159.61 32.68 147.625 30.72L126.03 42.62V42.64Z" fill="url(#paint15_linear_9_59)"/>
<defs>
<linearGradient id="paint0_linear_9_59" x1="152.636" y1="182.448" x2="123.245" y2="129.706" gradientUnits="userSpaceOnUse">
<stop stop-color="#FB7655"/>
<stop offset="0.41" stop-color="#E42B1E"/>
<stop offset="0.99" stop-color="#990000"/>
<stop offset="1" stop-color="#990000"/>
</linearGradient>
<linearGradient id="paint1_linear_9_59" x1="167.676" y1="138.658" x2="126.226" y2="130.494" gradientUnits="userSpaceOnUse">
<stop stop-color="#871101"/>
<stop offset="0.99" stop-color="#911209"/>
<stop offset="1" stop-color="#911209"/>
</linearGradient>
<linearGradient id="paint2_linear_9_59" x1="136.836" y1="183.475" x2="136.294" y2="157.079" gradientUnits="userSpaceOnUse">
<stop stop-color="#871101"/>
<stop offset="0.99" stop-color="#911209"/>
<stop offset="1" stop-color="#911209"/>
</linearGradient>
<linearGradient id="paint3_linear_9_59" x1="57.4334" y1="120.241" x2="69.7069" y2="156.423" gradientUnits="userSpaceOnUse">
<stop stop-color="white"/>
<stop offset="0.23" stop-color="#E57252"/>
<stop offset="0.46" stop-color="#DE3B20"/>
<stop offset="0.99" stop-color="#A60003"/>
<stop offset="1" stop-color="#A60003"/>
</linearGradient>
<linearGradient id="paint4_linear_9_59" x1="98.2726" y1="84.0877" x2="100.439" y2="123.075" gradientUnits="userSpaceOnUse">
<stop stop-color="white"/>
<stop offset="0.23" stop-color="#E4714E"/>
<stop offset="0.56" stop-color="#BE1A0D"/>
<stop offset="0.99" stop-color="#A80D00"/>
<stop offset="1" stop-color="#A80D00"/>
</linearGradient>
<linearGradient id="paint5_linear_9_59" x1="134.364" y1="47.5786" x2="137.441" y2="75.8071" gradientUnits="userSpaceOnUse">
<stop stop-color="white"/>
<stop offset="0.18" stop-color="#E46342"/>
<stop offset="0.4" stop-color="#C82410"/>
<stop offset="0.99" stop-color="#A80D00"/>
<stop offset="1" stop-color="#A80D00"/>
</linearGradient>
<linearGradient id="paint6_linear_9_59" x1="113.575" y1="38.8614" x2="118.15" y2="19.2996" gradientUnits="userSpaceOnUse">
<stop stop-color="white"/>
<stop offset="0.54" stop-color="#C81F11"/>
<stop offset="0.99" stop-color="#BF0905"/>
<stop offset="1" stop-color="#BF0905"/>
</linearGradient>
<linearGradient id="paint7_linear_9_59" x1="33.1134" y1="110.719" x2="45.2829" y2="118.514" gradientUnits="userSpaceOnUse">
<stop stop-color="white"/>
<stop offset="0.31" stop-color="#DE4024"/>
<stop offset="0.99" stop-color="#BF190B"/>
<stop offset="1" stop-color="#BF190B"/>
</linearGradient>
<linearGradient id="paint8_linear_9_59" x1="17.5705" y1="139.494" x2="125.752" y2="27.2045" gradientUnits="userSpaceOnUse">
<stop stop-color="#BD0012"/>
<stop offset="0.07" stop-color="white"/>
<stop offset="0.17" stop-color="white"/>
<stop offset="0.27" stop-color="#C82F1C"/>
<stop offset="0.33" stop-color="#820C01"/>
<stop offset="0.46" stop-color="#A31601"/>
<stop offset="0.72" stop-color="#B31301"/>
<stop offset="0.99" stop-color="#E82609"/>
<stop offset="1" stop-color="#E82609"/>
</linearGradient>
<linearGradient id="paint9_linear_9_59" x1="99.7981" y1="151.817" x2="68.8557" y2="138.621" gradientUnits="userSpaceOnUse">
<stop stop-color="#8C0C01"/>
<stop offset="0.54" stop-color="#990C00"/>
<stop offset="0.99" stop-color="#A80D0E"/>
<stop offset="1" stop-color="#A80D0E"/>
</linearGradient>
<linearGradient id="paint10_linear_9_59" x1="156.414" y1="111.276" x2="124.744" y2="88.9941" gradientUnits="userSpaceOnUse">
<stop stop-color="#7E110B"/>
<stop offset="0.99" stop-color="#9E0C00"/>
<stop offset="1" stop-color="#9E0C00"/>
</linearGradient>
<linearGradient id="paint11_linear_9_59" x1="166.807" y1="63.6292" x2="151.671" y2="48.4805" gradientUnits="userSpaceOnUse">
<stop stop-color="#79130D"/>
<stop offset="0.99" stop-color="#9E120B"/>
<stop offset="1" stop-color="#9E120B"/>
</linearGradient>
<radialGradient id="paint12_radial_9_59" cx="0" cy="0" r="1" gradientUnits="userSpaceOnUse" gradientTransform="translate(131.962 85.8482) scale(35.3829 18.4889)">
<stop stop-color="#A80D00"/>
<stop offset="0.99" stop-color="#7E0E08"/>
<stop offset="1" stop-color="#7E0E08"/>
</radialGradient>
<radialGradient id="paint13_radial_9_59" cx="0" cy="0" r="1" gradientUnits="userSpaceOnUse" gradientTransform="translate(82.953 132.945) scale(47.2555 36.7863)">
<stop stop-color="#A30C00"/>
<stop offset="0.99" stop-color="#800E08"/>
<stop offset="1" stop-color="#800E08"/>
</radialGradient>
<linearGradient id="paint14_linear_9_59" x1="48.3899" y1="169.476" x2="21.9727" y2="147.397" gradientUnits="userSpaceOnUse">
<stop stop-color="#8B2114"/>
<stop offset="0.43" stop-color="#9E100A"/>
<stop offset="0.99" stop-color="#B3100C"/>
<stop offset="1" stop-color="#B3100C"/>
</linearGradient>
<linearGradient id="paint15_linear_9_59" x1="139.816" y1="37.2889" x2="147.286" y2="56.2391" gradientUnits="userSpaceOnUse">
<stop stop-color="#B31000"/>
<stop offset="0.44" stop-color="#910F08"/>
<stop offset="0.99" stop-color="#791C12"/>
<stop offset="1" stop-color="#791C12"/>
</linearGradient>
</defs>
</svg>
