<svg width="200" height="200" viewBox="0 0 200 200" fill="none" xmlns="http://www.w3.org/2000/svg">
<path d="M106.595 22.9303C102.603 20.6849 97.3973 20.6949 93.4013 22.9303C73.3876 33.9753 53.3734 45.0236 33.3559 56.0635C29.4608 58.1126 26.8336 62.2955 26.8755 66.637V133.372C26.8474 137.798 29.61 142.022 33.6056 144.043C39.3552 147.102 44.9414 150.471 50.795 153.326C57.5566 156.649 66.0162 157.383 72.8605 153.918C78.4163 151.047 80.884 144.66 80.8767 138.79C80.9217 116.766 80.884 94.7412 80.8941 72.7165C81.0263 71.7378 80.2911 70.6915 79.2235 70.7151C76.6658 70.6746 74.1048 70.6915 71.5471 70.7084C70.5807 70.6173 69.6374 71.4199 69.7105 72.3914C69.6762 94.2738 69.7173 116.163 69.6897 138.049C69.7454 141.076 67.7001 143.985 64.7826 145.008C58.0443 147.37 38.8111 134.882 38.8111 134.882C38.1053 134.555 37.6571 133.789 37.7263 133.029C37.7263 111.012 37.7297 88.9936 37.7263 66.9796C37.6293 66.092 38.1763 65.2926 38.9914 64.9303C58.9394 53.9504 78.877 42.943 98.8249 31.9564C99.5179 31.494 100.484 31.4954 101.175 31.9598C121.123 42.943 141.064 53.9403 161.016 64.9207C161.833 65.2825 162.357 66.0953 162.274 66.9796C162.27 88.9936 162.281 111.012 162.267 133.026C162.326 133.805 161.923 134.56 161.196 134.902C141.434 145.822 121.448 156.391 101.865 167.628C101.01 168.118 100.042 168.673 99.0848 168.133C93.9351 165.285 88.8479 162.326 83.7151 159.45C83.1571 159.101 82.4466 158.952 81.8644 159.342C79.5633 160.554 77.3988 161.536 74.7561 162.583C71.0448 164.052 71.6376 164.653 74.9851 166.603C80.9875 170 87.0001 173.383 93.0025 176.784C96.9541 179.25 102.264 179.425 106.342 177.146C126.359 166.115 146.37 155.071 166.391 144.04C170.376 142.008 173.153 137.801 173.124 133.371V66.637C173.163 62.3836 170.637 58.2753 166.859 56.1958C146.775 45.097 126.682 34.0224 106.595 22.9303Z" fill="#8CC84B"/>
<path d="M136.798 73.035C128.942 68.832 119.595 68.6081 110.865 69.1577C104.557 69.7809 97.9238 71.5213 93.3288 76.0427C88.6156 80.5877 87.5896 87.9272 89.8283 93.8604C91.4326 98.0533 95.4707 100.78 99.6467 102.222C105.026 104.121 110.676 104.708 116.327 105.295C121.482 105.831 126.638 106.367 131.593 107.899C133.617 108.569 135.974 109.595 136.593 111.797C137.166 114.405 136.538 117.436 134.421 119.248C127.696 124.571 108.988 123.756 102.343 119.566C99.6569 117.781 98.4993 114.622 98.0284 111.611C97.9761 110.672 97.2207 109.812 96.202 109.883C93.6511 109.853 91.1001 109.86 88.5492 109.88C87.6593 109.805 86.734 110.438 86.6851 111.347C86.1608 125.138 98.8266 131.15 110.709 132.473C117.498 133.12 124.436 133.083 131.121 131.626C136.147 130.482 141.186 128.375 144.645 124.504C148.911 119.8 149.75 112.796 147.837 106.937C146.374 102.565 142.194 99.7599 137.922 98.3171C132.111 96.3247 125.225 95.2537 119.962 94.7526C112.313 94.0241 103.223 94.3217 101.058 89.2952C100.194 86.6632 100.929 83.3951 103.347 81.7762C109.747 77.4354 122.772 78.012 129.399 81.2548C132.442 82.7786 134.206 85.9084 134.934 89.0679C135.069 89.9961 135.693 90.9647 136.767 90.9242C139.301 90.9748 141.834 90.9377 144.367 90.9411C145.237 91.0018 146.19 90.5107 146.36 89.6197C146.253 83.016 142.881 76.2559 136.798 73.035Z" fill="#8CC84B"/>
</svg>
