<svg width="200" height="200" viewBox="0 0 200 200" fill="none" xmlns="http://www.w3.org/2000/svg">
<path d="M170 30H30V170H170V30Z" fill="#F5DE19"/>
<path d="M124.045 139.375C125.238 141.798 127.091 143.835 129.391 145.25C131.691 146.665 134.345 147.402 137.045 147.375C142.495 147.375 145.98 144.65 145.98 140.875C145.98 136.375 142.4 134.765 136.4 132.14L133.11 130.73C123.61 126.685 117.31 121.62 117.31 110.91C117.31 101.045 124.81 93.53 136.575 93.53C140.384 93.255 144.189 94.1074 147.516 95.9808C150.843 97.8543 153.545 100.666 155.285 104.065L145 110.64C144.33 108.955 143.164 107.513 141.656 106.505C140.147 105.498 138.369 104.973 136.555 105C135.764 104.921 134.965 105.007 134.209 105.254C133.453 105.501 132.757 105.902 132.164 106.433C131.572 106.963 131.097 107.611 130.769 108.336C130.441 109.06 130.268 109.845 130.26 110.64C130.26 114.585 132.705 116.185 138.35 118.64L141.64 120.05C152.82 124.845 159.14 129.73 159.14 140.715C159.14 152.56 149.835 159.05 137.34 159.05C132.472 159.36 127.617 158.255 123.363 155.867C119.109 153.48 115.637 149.912 113.365 145.595L124.045 139.375ZM77.57 140.515C79.635 144.18 81.515 147.28 86.035 147.28C90.355 147.28 93.085 145.59 93.085 139.015V94.28H106.24V139.19C106.24 152.81 98.24 159.01 86.595 159.01C82.4788 159.235 78.3908 158.209 74.8684 156.067C71.3461 153.926 68.5543 150.768 66.86 147.01L77.57 140.515Z" fill="black"/>
</svg>
