<svg width="200" height="200" viewBox="0 0 200 200" fill="none" xmlns="http://www.w3.org/2000/svg">
<g clip-path="url(#clip0_7_121)">
<path d="M161.845 30L150.599 155.985L100.047 170L49.6343 156.005L38.4 30H161.845Z" fill="#E44D26"/>
<path d="M100.122 159.288L140.971 147.963L150.581 40.3027H100.122V159.288Z" fill="#F16529"/>
<path d="M78.2605 71.211H100.123V55.7568H61.3712L61.7411 59.9029L65.5394 102.49H100.123V87.0361H79.6728L78.2605 71.211Z" fill="#EBEBEB"/>
<path d="M81.7432 110.217H66.2299L68.395 134.482L100.051 143.27L100.122 143.251V127.172L100.055 127.19L82.8435 122.543L81.7432 110.217Z" fill="#EBEBEB"/>
<path d="M100.069 102.49H119.099L117.305 122.533L100.069 127.185V143.263L131.751 134.482L131.983 131.871L135.615 91.186L135.992 87.0361H100.069V102.49Z" fill="white"/>
<path d="M100.069 71.1732V71.211H137.398L137.708 67.7374L138.412 59.9029L138.781 55.7568H100.069V71.1732Z" fill="white"/>
<path d="M54.8 0H61.8859V7.00075H68.3677V0H75.4538V21.2H68.368V14.101H61.8862V21.2H54.8004L54.8 0Z" fill="white"/>
<path d="M84.7719 7.03023H78.5338V0H98.0991V7.03023H91.8583V21.2H84.7722L84.7719 7.03023Z" fill="white"/>
<path d="M101.204 0H108.593L113.138 7.44905L117.678 0H125.07V21.2H118.013V10.6921L113.138 18.2299H113.016L108.138 10.6921V21.2H101.204V0Z" fill="white"/>
<path d="M128.596 0H135.684V14.1925H145.649V21.2H128.596V0Z" fill="white"/>
</g>
<defs>
<clipPath id="clip0_7_121">
<rect width="200" height="200" fill="white"/>
</clipPath>
</defs>
</svg>
