<svg width="200" height="200" viewBox="0 0 200 200" fill="none" xmlns="http://www.w3.org/2000/svg">
<path d="M99.9119 114.384C108.023 114.384 114.598 107.809 114.598 99.6984C114.598 91.5877 108.023 85.0127 99.9119 85.0127C91.8012 85.0127 85.2261 91.5877 85.2261 99.6984C85.2261 107.809 91.8012 114.384 99.9119 114.384Z" fill="#00D8FF"/>
<path fill-rule="evenodd" clip-rule="evenodd" d="M100.991 68.743C126.03 68.9135 153.348 70.7402 172.101 87.4625C172.652 87.9544 173.183 88.466 173.701 88.9941C178.125 93.5034 180.437 100.784 176.866 106.776C169.539 119.077 153.155 124.442 137.292 127.745C113.568 132.684 88.7614 132.723 65.0471 128.375C51.401 125.869 37.4466 121.478 27.749 112.292C23.9743 108.717 20.7473 104.014 21.2523 98.7802C22.0722 90.3124 30.1956 84.8782 37.0334 81.1986C56.0251 70.9796 79.1655 68.6938 100.991 68.743ZM99.1739 72.5898C75.4826 72.7505 49.84 74.2624 31.5467 89.4106C30.9072 89.9386 30.2907 90.4928 29.6971 91.0733C29.3134 91.4471 28.9428 91.8374 28.5853 92.2375C25.3747 95.845 24.2695 101.64 27.2998 105.972C30.3497 110.331 34.9804 113.476 39.7488 116.04C57.5829 125.63 78.6572 127.332 99.2034 127.404C120.005 127.479 141.457 125.584 159.832 116.083C167.152 112.295 175.39 106.733 175.098 99.5705C174.829 92.9984 168.421 88.9383 163.623 86.0392C162.325 85.2554 160.99 84.5306 159.635 83.8485C141.395 74.7084 120.019 72.5439 99.1739 72.5898Z" fill="#00D8FF"/>
<path fill-rule="evenodd" clip-rule="evenodd" d="M133.081 30.002C142.241 30.2348 146.986 41.2475 147.613 49.3807C147.737 50.9975 147.783 52.6209 147.763 54.2442C147.744 56.0021 147.649 57.7599 147.494 59.5112C145.563 81.1954 135.662 101.847 124.003 120.917C112.6 139.571 98.6951 158.172 79.7788 166.817C73.5247 169.677 66.0867 171.441 60.5509 168.25C52.9621 163.879 52.1323 153.653 52.2734 145.897C52.3094 143.992 52.4341 142.086 52.6308 140.188C55.5463 112.115 69.7762 85.5211 87.5841 62.6103C97.9736 49.243 110.334 35.9838 125.732 31.1826C128.155 30.425 130.08 29.9659 133.081 30.002ZM132.642 33.8456C121.888 34.0161 112.233 41.9854 103.683 50.2662C81.2054 72.0324 64.6405 100.981 57.9765 131.339C57.4616 133.691 57.0287 136.059 56.7106 138.443C56.4646 140.289 56.2842 142.145 56.1891 144.008C56.1137 145.491 56.0875 146.976 56.1334 148.462C56.1662 149.623 56.2416 150.784 56.3695 151.938C56.4646 152.82 56.5925 153.699 56.7532 154.572C56.8745 155.218 57.0156 155.86 57.1795 156.5C57.314 157.018 57.4649 157.533 57.6354 158.045C58.9767 162.088 62.4333 165.952 67.0739 166.079C77.8996 166.375 88.0924 158.481 96.9045 149.902C112.374 134.845 123.902 115.926 132.907 96.0386C140.175 79.982 146.822 62.5283 143.11 44.855C142.969 44.1859 142.805 43.5235 142.618 42.8676C142.464 42.333 142.29 41.805 142.1 41.2836C140.657 37.3514 137.262 33.8357 132.642 33.8456Z" fill="#00D8FF"/>
<path fill-rule="evenodd" clip-rule="evenodd" d="M67.4707 30.1463C79.159 30.3726 89.6567 38.3058 98.9772 47.19C115.985 63.4007 128.529 84.0224 138.046 105.726C145.419 122.54 152.201 141.414 146.173 159.156C144.274 164.748 139.47 169.864 133.065 169.995C121.321 170.231 110.436 161.691 100.991 152.499C77.2962 129.431 59.7048 98.977 53.677 66.6802C53.2441 64.3715 52.8998 62.043 52.6636 59.7047C52.4701 57.796 52.3488 55.8775 52.316 53.9589C52.2898 52.411 52.3226 50.8631 52.4308 49.3217C52.5029 48.2919 52.6079 47.2687 52.7489 46.2488C52.8834 45.2912 53.0539 44.3368 53.2671 43.3923C53.4081 42.7659 53.5655 42.1461 53.7459 41.5295C55.5135 35.4854 60.1114 30.1004 67.4707 30.1463ZM67.028 33.9932C60.1836 34.144 57.0516 42.215 56.422 47.8787C56.2941 49.0397 56.2154 50.2104 56.1793 51.3812C56.1334 52.8767 56.1531 54.3754 56.2285 55.8709C57.3042 77.5125 66.9788 98.4359 78.6539 117.595C89.6469 135.632 102.922 153.598 121.183 162.833C126.456 165.499 132.865 167.595 137.42 165.076C143.133 161.914 143.835 154.381 144.14 148.767C144.222 147.239 144.231 145.704 144.182 144.172C144.123 142.25 143.972 140.332 143.746 138.423C141.641 120.592 133.743 103.719 124.672 87.7742C113.384 67.9396 99.5544 48.1706 79.9821 37.8433C75.9286 35.7051 71.5406 33.9571 67.028 33.9932Z" fill="#00D8FF"/>
</svg>
