<svg width="200" height="200" viewBox="0 0 200 200" fill="none" xmlns="http://www.w3.org/2000/svg">
<path d="M100.047 170L49.6344 156.005L38.4 30H161.845L150.599 155.985L100.047 170Z" fill="#264DE4"/>
<path d="M140.971 147.963L150.581 40.3025H100.123V159.288L140.971 147.963Z" fill="#2965F1"/>
<path d="M64.1546 87.036L65.5394 102.49H100.123V87.036H64.1546ZM61.3712 55.7568L62.7759 71.2108H100.123V55.7568H61.3712ZM100.123 127.172L100.055 127.19L82.8438 122.542L81.7435 110.217H66.23L68.3949 134.482L100.051 143.27L100.123 143.25V127.172Z" fill="#EBEBEB"/>
<path d="M135.992 87.036L138.781 55.7568H100.069V71.2108H121.845L120.439 87.036H100.069V102.49H119.099L117.305 122.533L100.069 127.185V143.262L131.75 134.482L131.983 131.871L135.615 91.1858L135.992 87.036Z" fill="white"/>
<path d="M72 0H88.6565V6.96576H78.9658V13.9315H88.6574V20.8968H72V0ZM91.9882 0H108.645V6.05714H98.954V7.26849H108.645V21.2H91.9887V14.8393H101.68V13.6279H91.9878L91.9882 0ZM111.977 0H128.634V6.05714H118.943V7.26849H128.634V21.2H111.977V14.8393H121.668V13.6279H111.977V0H111.977Z" fill="white"/>
</svg>
