<svg width="40" height="36" viewBox="0 0 40 36" fill="none" xmlns="http://www.w3.org/2000/svg">
<g clip-path="url(#clip0_1_6)">
<path fill-rule="evenodd" clip-rule="evenodd" d="M24 0C23.4696 0 22.9609 0.210714 22.5858 0.585786C22.2107 0.960859 22 1.46957 22 2V14C22 15.1 22.9 16 24 16H38C38.5304 16 39.0391 15.7893 39.4142 15.4142C39.7893 15.0391 40 14.5304 40 14V2C40 1.46957 39.7893 0.960859 39.4142 0.585786C39.0391 0.210714 38.5304 0 38 0L24 0ZM2 20C1.46957 20 0.960859 20.2107 0.585786 20.5858C0.210714 20.9609 0 21.4696 0 22L0 34C0 35.1 0.9 36 2 36H16C16.5304 36 17.0391 35.7893 17.4142 35.4142C17.7893 35.0391 18 34.5304 18 34V22C18 21.4696 17.7893 20.9609 17.4142 20.5858C17.0391 20.2107 16.5304 20 16 20H2Z" fill="#00FF00"/>
<path fill-rule="evenodd" clip-rule="evenodd" d="M2 0C1.46957 0 0.960859 0.210714 0.585786 0.585786C0.210714 0.960859 0 1.46957 0 2L0 14C0 15.1 0.9 16 2 16H16C16.5304 16 17.0391 15.7893 17.4142 15.4142C17.7893 15.0391 18 14.5304 18 14V2C18 1.46957 17.7893 0.960859 17.4142 0.585786C17.0391 0.210714 16.5304 0 16 0L2 0ZM24 20C23.4696 20 22.9609 20.2107 22.5858 20.5858C22.2107 20.9609 22 21.4696 22 22V34C22 35.1 22.9 36 24 36H38C38.5304 36 39.0391 35.7893 39.4142 35.4142C39.7893 35.0391 40 34.5304 40 34V22C40 21.4696 39.7893 20.9609 39.4142 20.5858C39.0391 20.2107 38.5304 20 38 20H24Z" fill="#0064FF"/>
</g>
<defs>
<clipPath id="clip0_1_6">
<rect width="40" height="36" fill="white"/>
</clipPath>
</defs>
</svg>
