<svg width="200" height="200" viewBox="0 0 200 200" fill="none" xmlns="http://www.w3.org/2000/svg">
<path d="M34.3828 35.9829H166.007V164.017H34.3828V35.9829Z" fill="#0C0824"/>
<path d="M34.3828 35.9828H166.007V164.017H34.3828V35.9828ZM28.4 170H171.989V30H28.4V170ZM125.203 87.4358C120.477 87.4358 118.861 89.8288 118.861 91.8032C118.861 93.9569 119.938 95.4527 126.28 98.7433C135.673 103.29 138.605 107.658 138.605 114.06C138.605 123.632 131.306 128.778 121.434 128.778C116.229 128.778 111.742 127.7 109.169 126.205C108.75 126.026 108.69 125.726 108.69 125.248V116.453C108.69 115.855 108.99 115.675 109.409 115.974C113.178 118.427 117.485 119.504 121.434 119.504C126.161 119.504 128.135 117.53 128.135 114.837C128.135 112.684 126.759 110.769 120.716 107.658C112.22 103.59 108.69 99.4614 108.69 92.5811C108.69 84.863 114.733 78.4614 125.203 78.4614C130.349 78.4614 133.938 79.2393 135.913 80.1366C136.391 80.4357 136.511 80.9143 136.511 81.3331V89.5295C136.511 90.008 136.212 90.3074 135.613 90.1277C132.981 88.4529 129.092 87.4358 125.203 87.4358ZM73.7503 94.5554C75.1264 94.675 76.2034 94.675 78.5965 94.675C85.5967 94.675 92.1778 92.2221 92.1778 82.7094C92.1778 75.1112 87.4512 71.2819 79.494 71.2819C77.101 71.2819 74.8273 71.4016 73.7503 71.4614V94.5554ZM63.101 62.7862C63.101 62.3674 63.9387 62.0681 64.417 62.0681C68.2463 61.8886 73.93 61.769 79.853 61.769C96.4255 61.769 102.887 70.863 102.887 82.4699C102.887 97.6663 91.8784 104.188 78.3572 104.188C76.0838 104.188 75.3061 104.068 73.6905 104.068V127.042C73.6905 127.521 73.511 127.76 72.9726 127.76H63.8188C63.3402 127.76 63.1007 127.581 63.1007 127.042V62.7862H63.101Z" fill="#31C5F0"/>
</svg>
