<svg width="200" height="200" viewBox="0 0 200 200" fill="none" xmlns="http://www.w3.org/2000/svg">
<path d="M123.2 123.333C136.087 123.333 146.533 112.887 146.533 100C146.533 87.1134 136.087 76.6667 123.2 76.6667C110.313 76.6667 99.8666 87.1134 99.8666 100C99.8666 112.887 110.313 123.333 123.2 123.333Z" fill="#19BCFE"/>
<path fill-rule="evenodd" clip-rule="evenodd" d="M76.5333 170C89.42 170 99.8666 159.553 99.8666 146.667C99.8666 143.149 99.8666 135.371 99.8666 123.333C89.3844 123.333 81.6066 123.333 76.5333 123.333C63.6466 123.333 53.2 133.78 53.2 146.667C53.2 159.553 63.6466 170 76.5333 170Z" fill="#09CF83"/>
<path fill-rule="evenodd" clip-rule="evenodd" d="M76.5333 123.333C80.8288 123.333 88.6066 123.333 99.8666 123.333V76.6667C88.6066 76.6667 80.8288 76.6667 76.5333 76.6667C63.6466 76.6667 53.2 87.1134 53.2 100C53.2 112.887 63.6466 123.333 76.5333 123.333Z" fill="#A259FF"/>
<path fill-rule="evenodd" clip-rule="evenodd" d="M76.5333 76.6667C80.8288 76.6667 88.6066 76.6667 99.8666 76.6667V30C88.6066 30 80.8288 30 76.5333 30C63.6466 30 53.2 40.4467 53.2 53.3333C53.2 66.22 63.6466 76.6667 76.5333 76.6667Z" fill="#F24E1E"/>
<path fill-rule="evenodd" clip-rule="evenodd" d="M123.2 76.6667H99.8666V30H123.2C136.087 30 146.533 40.4467 146.533 53.3333C146.533 66.22 136.087 76.6667 123.2 76.6667Z" fill="#FF7262"/>
</svg>
