<svg width="200" height="200" viewBox="0 0 200 200" fill="none" xmlns="http://www.w3.org/2000/svg">
<rect x="68.7047" y="134.793" width="41.2973" height="24.8743" transform="rotate(-30.6 68.7047 134.793)" fill="#D9D9D9"/>
<rect x="94.9623" y="114.221" width="41.2973" height="24.8743" transform="rotate(30.4 94.9623 114.221)" fill="#D9D9D9"/>
<rect x="99.2186" y="41.6714" width="41.2973" height="89.4392" transform="rotate(6.4 99.2186 41.6714)" fill="#D9D9D9"/>
<rect x="59.6" y="46.0977" width="41.2973" height="89.4392" transform="rotate(-6 59.6 46.0977)" fill="#D9D9D9"/>
<path d="M122.271 175.374L123.998 146.597L128.767 138.457C128.767 138.457 117.913 142.897 99.7431 142.897C81.5727 142.897 70.8839 138.539 70.8839 138.539L76.2281 147.419L78.1187 175.374C78.1187 178.371 88.0023 180.8 100.195 180.8C112.387 180.8 122.271 178.371 122.271 175.374Z" fill="#D34A47"/>
<path d="M116.506 40.9902L120.111 26.6623L140.073 5.54003L134.811 1.03369L113.677 23.5342L109.492 40.6523C106.459 40.5492 103.295 40.4941 100.039 40.4941C77.7806 40.4941 59.7368 43.045 59.7368 46.1909C59.7368 49.3372 77.7806 51.8877 100.039 51.8877C122.296 51.8877 140.34 49.3372 140.34 46.1909C140.34 43.8743 130.554 41.8803 116.506 40.9902Z" fill="#D34A47"/>
<path d="M114.715 49.0143C114.715 49.0143 113.93 49.1903 111.62 49.2002C109.31 49.2097 107.67 49.1852 107.017 48.5902C106.841 48.4304 106.745 48.1131 106.746 47.8983C106.748 47.4894 107.038 47.2485 107.408 47.0977L107.758 47.6463C107.606 47.6988 107.519 47.7609 107.518 47.8271C107.517 48.1376 109.88 48.3502 111.688 48.3273C113.496 48.305 115.68 48.1561 115.682 47.85C115.682 47.7574 115.517 47.6702 115.229 47.6014L115.577 47.0566C116.046 47.2021 116.455 47.4831 116.454 47.9693C116.449 48.796 115.397 48.9217 114.715 49.0143Z" fill="white"/>
<path d="M140.032 5.58176C140.537 4.99878 139.771 3.50759 138.321 2.25157C136.871 0.996179 135.286 0.450747 134.781 1.03373C134.276 1.61671 135.042 3.1079 136.492 4.36329C137.942 5.61899 139.527 6.16506 140.032 5.58176Z" fill="#D34A47"/>
<path d="M121.305 105.084C120.83 100.506 131.317 93.8771 128.626 93.6649C122.832 93.9961 119.948 100.455 117.033 107.22C115.964 109.699 112.309 120.271 109.912 118.97C107.515 117.669 113.019 108.975 114.562 103.812C112.782 105.118 106.253 110.19 104.571 105.44C101.866 107.737 96.0861 108.982 96.7381 102.947C95.2991 105.496 92.0695 109.055 88.1929 107.576C83.102 105.634 91.1428 89.4176 93.1422 90.2357C95.1419 91.0535 92.7387 94.7478 92.1093 96.1823C90.725 99.3394 89.126 103.308 90.1942 104.121C92.0243 105.513 97.0045 98.8551 97.1152 98.7087C98.0467 97.4781 100.7 89.4274 102.839 90.3519C104.978 91.2763 97.5044 101.906 100.299 104.015C100.862 104.441 103.168 103.753 104.571 102.235C105.478 101.254 105.166 99.0791 108.192 91.8644C111.217 84.65 113.913 75.6653 115.988 76.3498C118.063 77.034 116.353 81.6453 115.608 83.3644C112.116 91.4326 106.076 104.762 108.924 103.753C111.773 102.744 113.256 102.685 116.045 99.4209C118.834 96.1569 118.706 90.7805 120.565 90.8948C122.424 91.0093 122.112 92.7331 121.661 94.0458C123.491 91.9519 130.335 87.542 131.987 91.9096C133.944 97.0804 122.196 104.549 125.125 104.168C127.981 103.797 132.608 100.867 134.583 98.2021L140.021 49.3149C140.021 49.3149 134.549 53.8432 99.7377 53.8432C64.9258 53.8432 60.0201 49.4091 60.0201 49.4091L64.6496 94.0315C67.1069 87.0475 72.9422 72.921 82.14 73.3951C86.324 73.6109 91.9094 81.6673 87.125 81.9403C85.0998 82.0555 84.8942 77.9189 82.4961 77.3115C80.7656 76.8729 78.3564 78.2798 76.7993 79.8041C73.6941 82.8431 67.0156 94.8334 67.898 100.811C69.0223 108.432 78.4146 98.1629 80.0038 95.1141C81.123 92.9664 81.8791 86.6032 84.3269 87.2708C86.7749 87.9385 84.1133 94.5053 82.3389 100.311C80.3456 106.831 79.2977 113.708 76.7993 112.917C74.3007 112.126 78.3707 103.71 78.2234 102.235C75.8749 104.402 71.5484 109.887 66.0132 107.172L68.8883 134.883C68.8883 134.883 76.5298 140.92 99.549 140.92C122.568 140.92 130.493 134.977 130.493 134.977L134.063 102.882C131.142 105.726 121.897 110.777 121.305 105.084Z" fill="#D34A47"/>
</svg>
