<svg width="200" height="200" viewBox="0 0 200 200" fill="none" xmlns="http://www.w3.org/2000/svg">
<path d="M167.351 93.7656L106.234 32.6468C105.398 31.8079 104.405 31.1422 103.311 30.688C102.217 30.2338 101.044 30 99.86 30C98.6756 30 97.5029 30.2338 96.4091 30.688C95.3153 31.1422 94.3219 31.8079 93.4859 32.6468L80.7926 45.3405L96.8904 61.4389C98.7887 60.7929 100.83 60.6931 102.782 61.1509C104.735 61.6087 106.519 62.6057 107.932 64.0284C109.345 65.451 110.331 67.242 110.775 69.1972C111.22 71.1525 111.107 73.1935 110.449 75.0875L125.946 90.5859C128.263 89.7901 130.782 89.8121 133.085 90.6483C135.387 91.4845 137.333 93.0844 138.599 95.1815C139.865 97.2785 140.374 99.746 140.042 102.173C139.709 104.6 138.555 106.839 136.772 108.519C134.988 110.198 132.684 111.215 130.241 111.402C127.799 111.588 125.367 110.931 123.349 109.542C121.332 108.152 119.852 106.113 119.156 103.765C118.459 101.416 118.589 98.8999 119.522 96.6353L105.049 82.1618V120.243C107.242 121.329 108.996 123.134 110.019 125.356C111.043 127.579 111.274 130.085 110.674 132.457C110.075 134.829 108.681 136.925 106.724 138.394C104.767 139.863 102.367 140.617 99.9214 140.531C97.4761 140.445 95.1341 139.524 93.2855 137.921C91.4368 136.318 90.1932 134.131 89.7616 131.722C89.33 129.314 89.7367 126.83 90.9137 124.685C92.0908 122.54 93.9672 120.863 96.2305 119.933V81.5018C94.9211 80.9646 93.731 80.1736 92.7286 79.1744C91.7263 78.1752 90.9316 76.9876 90.3902 75.6799C89.8488 74.3722 89.5715 72.9703 89.5743 71.555C89.5771 70.1396 89.8598 68.7388 90.4063 67.4333L74.5585 51.5749L32.6492 93.5006C31.8096 94.3367 31.1433 95.3305 30.6887 96.4248C30.234 97.5191 30 98.6925 30 99.8775C30 101.062 30.234 102.236 30.6887 103.33C31.1433 104.424 31.8096 105.418 32.6492 106.254L93.7658 167.353C94.6018 168.192 95.5952 168.858 96.689 169.312C97.7829 169.766 98.9556 170 100.14 170C101.324 170 102.497 169.766 103.591 169.312C104.685 168.858 105.678 168.192 106.514 167.353L167.351 106.499C168.19 105.663 168.857 104.669 169.311 103.575C169.766 102.481 170 101.307 170 100.122C170 98.9374 169.766 97.7641 169.311 96.6698C168.857 95.5755 168.19 94.5817 167.351 93.7456" fill="#DD4C35"/>
<path d="M80.7926 45.3406L96.8904 61.439C98.7887 60.7929 100.83 60.6931 102.782 61.151C104.735 61.6088 106.519 62.6058 107.932 64.0284C109.345 65.451 110.331 67.242 110.776 69.1973C111.22 71.1526 111.107 73.1935 110.449 75.0876L125.946 90.586C128.263 89.7902 130.782 89.8122 133.085 90.6484C135.387 91.4846 137.333 93.0845 138.599 95.1816C139.865 97.2786 140.374 99.7462 140.042 102.173C139.709 104.6 138.555 106.84 136.772 108.519C134.989 110.198 132.684 111.216 130.241 111.402C127.799 111.588 125.367 110.931 123.349 109.542C121.332 108.152 119.852 106.113 119.156 103.765C118.459 101.416 118.589 98.9001 119.522 96.6354L105.049 82.1619V120.243C107.242 121.329 108.996 123.134 110.019 125.356C111.043 127.579 111.274 130.085 110.675 132.457C110.075 134.83 108.681 136.925 106.724 138.394C104.768 139.863 102.367 140.618 99.9214 140.532C97.4761 140.446 95.1341 139.524 93.2855 137.922C91.4369 136.319 90.1932 134.131 89.7616 131.722C89.3301 129.314 89.7367 126.83 90.9137 124.685C92.0908 122.54 93.9672 120.863 96.2305 119.933V81.5019C94.9211 80.9647 93.731 80.1737 92.7287 79.1745C91.7263 78.1753 90.9316 76.9876 90.3902 75.68C89.8488 74.3723 89.5716 72.9704 89.5743 71.555C89.5771 70.1397 89.8598 68.7389 90.4063 67.4333L74.5585 51.5749" fill="white"/>
</svg>
