<svg width="200" height="200" viewBox="0 0 200 200" fill="none" xmlns="http://www.w3.org/2000/svg">
<path d="M165.446 44.8312L136.449 30.8706C134.811 30.081 132.969 29.8205 131.177 30.125C129.384 30.4296 127.731 31.2842 126.446 32.5704L31.5234 119.11C30.3717 120.155 29.6823 121.615 29.6069 123.168C29.5314 124.721 30.0761 126.241 31.1211 127.393C31.2468 127.528 31.3726 127.659 31.5083 127.78L39.2581 134.821C40.2707 135.742 41.5742 136.28 42.9422 136.341C44.3101 136.401 45.6561 135.981 46.7463 135.152L161.081 48.4521C161.945 47.7967 162.974 47.3955 164.054 47.2935C165.133 47.1914 166.219 47.3927 167.19 47.8746C168.161 48.3565 168.979 49.0999 169.55 50.0211C170.122 50.9423 170.425 52.0047 170.425 53.0888V52.7519C170.425 51.0968 169.958 49.4754 169.077 48.0742C168.196 46.673 166.938 45.5489 165.446 44.8312Z" fill="#0065A9"/>
<path d="M165.446 155.168L136.449 169.134C134.811 169.921 132.969 170.18 131.177 169.876C129.385 169.571 127.732 168.718 126.446 167.434L31.5234 80.8893C30.3717 79.8443 29.6823 78.3845 29.6069 76.8312C29.5314 75.2779 30.0761 73.7582 31.1211 72.6065C31.2468 72.4707 31.3726 72.34 31.5083 72.2193L39.2581 65.1786C40.2718 64.2531 41.5782 63.7129 42.9495 63.6522C44.3209 63.5916 45.6699 64.0143 46.7614 64.8467L161.081 151.547C161.945 152.202 162.974 152.604 164.054 152.706C165.133 152.808 166.219 152.607 167.19 152.125C168.161 151.643 168.979 150.899 169.55 149.978C170.122 149.057 170.425 147.994 170.425 146.91V147.272C170.42 148.923 169.95 150.539 169.07 151.935C168.189 153.331 166.934 154.452 165.446 155.168Z" fill="#007ACC"/>
<path d="M136.449 169.134C134.811 169.921 132.969 170.18 131.177 169.876C129.385 169.571 127.732 168.718 126.446 167.434C127.169 168.147 128.085 168.63 129.081 168.825C130.077 169.019 131.108 168.915 132.045 168.525C132.982 168.136 133.783 167.479 134.349 166.636C134.914 165.793 135.218 164.803 135.222 163.788V36.2115C135.223 35.1921 134.921 34.1953 134.355 33.3475C133.789 32.4997 132.984 31.839 132.042 31.4491C131.1 31.0592 130.064 30.9576 129.064 31.1572C128.064 31.3569 127.146 31.8487 126.426 32.5705C127.711 31.2848 129.364 30.4301 131.156 30.1247C132.948 29.8193 134.791 30.0782 136.429 30.8656L165.421 44.8061C166.917 45.5202 168.181 46.6428 169.066 48.0443C169.952 49.4458 170.423 51.0691 170.425 52.7268V147.273C170.426 148.929 169.958 150.552 169.076 151.954C168.194 153.356 166.934 154.481 165.441 155.198L136.449 169.134Z" fill="#1F9CF0"/>
</svg>
