<svg width="200" height="200" viewBox="0 0 200 200" fill="none" xmlns="http://www.w3.org/2000/svg">
<path d="M100 21L170 60.5962V139.815L100 179.411L30 139.815V60.5962L100 21Z" fill="white"/>
<path d="M157.506 137.068L102.324 168.317V144.015L136.717 125.076L157.506 137.068ZM161.283 133.66V68.3624L141.102 80.0114V122.011L161.283 133.66ZM42.283 137.068L97.4641 168.291V143.989L63.0717 125.076L42.283 137.068ZM38.5056 133.66V68.3624L58.6867 80.0114V122.011L38.5056 133.66ZM40.8566 64.1359L97.4641 32.1208V55.6303L61.1962 75.5737L60.9056 75.7322L40.8566 64.1359ZM158.906 64.1359L102.324 32.1208V55.6303L138.566 75.6001L138.857 75.7586L158.906 64.1359Z" fill="#8ED6FB"/>
<path d="M97.4642 138.468L63.5472 119.792V82.8376L97.4642 102.411V138.468ZM102.325 138.468L136.242 119.819V82.8376L102.325 102.411V138.468ZM65.8189 78.5584L99.8944 59.8301L133.943 78.5584L99.8944 98.2112L65.8189 78.5584Z" fill="#1C78C0"/>
</svg>
