<?xml version="1.0" standalone="no"?>
<!DOCTYPE svg PUBLIC "-//W3C//DTD SVG 20010904//EN"
 "http://www.w3.org/TR/2001/REC-SVG-20010904/DTD/svg10.dtd">
<svg version="1.0" xmlns="http://www.w3.org/2000/svg"
 width="700.000000pt" height="700.000000pt" viewBox="0 0 700.000000 700.000000"
 preserveAspectRatio="xMidYMid meet">
<metadata>
Created by potrace 1.14, written by Peter Selinger 2001-2017
</metadata>
<g transform="translate(0.000000,700.000000) scale(0.100000,-0.100000)"
fill="#000000" stroke="none">
<path d="M3947 6523 c-4 -4 -15 -7 -25 -8 -13 -1 -79 -12 -122 -19 -3 -1 -9
-4 -15 -7 -5 -4 -25 -10 -43 -14 -18 -3 -46 -13 -62 -21 -16 -9 -39 -16 -50
-17 -11 -1 -20 -4 -20 -7 0 -13 -81 -41 -107 -36 -15 2 -28 5 -28 6 0 2 -33
10 -60 15 -11 2 -20 4 -20 5 0 2 -33 8 -62 12 -7 1 -13 4 -13 7 0 3 -12 6 -27
7 -87 3 -145 9 -149 16 -3 4 -16 3 -29 -2 -17 -7 -25 -6 -25 1 0 8 -4 8 -14 0
-9 -7 -17 -8 -20 -2 -6 10 -68 7 -86 -4 -5 -3 -10 -1 -10 5 0 6 -5 8 -11 4 -6
-3 -30 -8 -53 -9 -54 -4 -129 -15 -138 -21 -5 -3 -8 1 -8 8 0 10 -2 10 -8 1
-5 -7 -20 -14 -35 -15 -15 -1 -27 -5 -27 -9 0 -3 -6 -6 -12 -7 -24 -1 -68 -12
-95 -24 -16 -6 -34 -12 -41 -14 -12 -2 -38 -13 -144 -62 -21 -9 -38 -20 -38
-24 0 -5 -9 -8 -19 -8 -11 0 -21 -3 -23 -8 -1 -4 -28 -23 -58 -42 -30 -19 -57
-37 -60 -40 -3 -3 -30 -25 -60 -50 -30 -25 -59 -50 -63 -57 -6 -10 -20 -7 -60
14 -29 15 -56 28 -62 29 -5 2 -20 5 -33 8 -12 3 -27 8 -32 11 -6 3 -10 2 -10
-4 0 -7 -9 -8 -22 -3 -28 10 -140 3 -133 -8 2 -4 -9 -6 -25 -5 -17 1 -30 -1
-30 -6 0 -5 -6 -6 -14 -3 -7 3 -20 -1 -27 -9 -8 -7 -20 -12 -27 -9 -6 2 -12
-2 -12 -9 0 -7 -3 -9 -6 -6 -7 7 -59 -19 -82 -40 -7 -7 -18 -13 -23 -13 -20 0
-149 -127 -149 -148 0 -8 -3 -12 -7 -9 -8 9 -53 -85 -55 -117 -1 -14 -5 -26
-9 -26 -4 0 -6 -8 -5 -17 1 -11 -7 -17 -24 -19 -56 -5 -109 -14 -134 -24 -15
-5 -30 -9 -34 -8 -7 1 -26 -5 -72 -24 -60 -25 -76 -33 -89 -42 -7 -6 -20 -11
-28 -12 -8 -2 -23 -10 -32 -18 -10 -9 -21 -16 -25 -16 -4 0 -13 -6 -21 -12 -7
-7 -27 -24 -44 -37 -36 -27 -123 -111 -115 -111 3 0 -7 -12 -21 -27 -31 -33
-101 -145 -97 -155 1 -5 -3 -8 -8 -8 -6 0 -10 -6 -10 -12 -1 -7 -9 -31 -20
-53 -11 -22 -19 -48 -20 -57 0 -9 -5 -20 -11 -23 -6 -4 -8 -13 -5 -21 3 -7 1
-16 -5 -20 -6 -3 -8 -12 -5 -20 3 -8 1 -14 -4 -14 -5 0 -7 -7 -4 -15 4 -8 2
-15 -3 -15 -8 0 -14 -29 -15 -70 -1 -20 -38 -61 -50 -54 -5 3 -7 2 -6 -3 2 -4
-10 -20 -25 -35 -15 -15 -27 -24 -27 -21 0 3 -14 -13 -30 -36 -17 -23 -35 -39
-41 -36 -5 4 -9 3 -8 -2 4 -22 -2 -34 -13 -27 -7 4 -10 4 -6 -1 5 -5 -3 -22
-16 -39 -32 -43 -96 -172 -89 -180 4 -3 0 -6 -7 -6 -7 0 -10 -3 -7 -6 3 -4 1
-16 -5 -28 -7 -11 -13 -27 -15 -33 -2 -7 -5 -19 -6 -25 -12 -42 -21 -95 -18
-107 1 -7 -1 -11 -6 -8 -12 7 -17 -76 -16 -258 0 -180 5 -265 13 -265 3 0 7
-12 8 -27 1 -16 5 -39 8 -53 3 -14 6 -31 6 -37 1 -7 4 -13 8 -13 4 0 6 -11 5
-25 -2 -14 1 -25 6 -25 5 0 9 -9 9 -20 0 -12 9 -39 20 -62 11 -22 17 -44 15
-49 -3 -4 3 -12 12 -18 10 -6 14 -11 9 -11 -5 0 -3 -7 4 -15 7 -8 10 -15 6
-15 -3 0 8 -23 24 -50 17 -28 30 -55 30 -60 0 -6 3 -10 8 -10 4 0 16 -16 26
-35 11 -19 23 -35 28 -35 4 0 8 -7 8 -15 0 -8 5 -15 11 -15 5 0 7 -4 4 -10 -3
-5 1 -10 9 -10 9 0 16 -5 16 -10 0 -11 148 -160 159 -160 4 0 21 -13 39 -30
18 -17 40 -30 48 -30 8 0 12 -4 9 -10 -3 -5 -2 -10 3 -10 5 0 42 -18 82 -40
40 -22 75 -38 78 -36 2 3 11 -1 19 -9 8 -8 23 -15 34 -15 10 0 19 -4 19 -8 0
-9 89 -36 109 -33 8 1 10 -2 5 -10 -4 -7 -3 -10 3 -6 6 4 25 2 44 -4 19 -6 45
-12 59 -14 14 -3 43 -8 65 -11 50 -9 328 -9 375 -1 19 4 45 9 58 12 12 3 30 7
40 9 9 2 30 9 45 15 16 6 33 9 38 5 5 -3 9 -2 9 3 0 4 28 21 63 37 34 16 66
35 70 43 18 30 33 10 51 -64 10 -43 18 -88 19 -100 1 -11 5 -19 10 -16 4 2 8
-5 8 -16 2 -21 5 -37 9 -46 1 -3 4 -9 5 -15 1 -5 4 -13 5 -17 1 -5 2 -11 1
-15 0 -5 4 -8 9 -8 6 0 10 -8 10 -18 0 -10 3 -22 8 -26 4 -4 7 -11 7 -14 1 -4
9 -22 18 -40 10 -17 14 -32 10 -32 -5 0 -3 -4 3 -8 6 -4 25 -34 43 -67 17 -33
31 -55 31 -50 0 6 8 -4 16 -22 16 -31 174 -202 174 -187 0 4 8 -2 18 -12 19
-21 68 -52 95 -61 9 -3 17 -9 17 -14 0 -5 9 -9 20 -9 11 0 20 -5 20 -11 0 -5
4 -8 9 -5 5 3 22 -1 37 -9 16 -8 38 -15 50 -15 11 0 24 -3 28 -7 7 -8 18 -10
91 -19 76 -9 166 -10 210 -3 22 4 44 4 49 -1 5 -5 15 -6 22 -3 8 3 14 0 14 -6
0 -6 7 -8 15 -5 8 4 22 1 30 -6 8 -7 15 -10 15 -6 0 3 12 1 28 -5 15 -6 38
-13 52 -16 13 -2 30 -9 37 -14 7 -6 17 -8 23 -4 5 3 10 3 10 -2 0 -4 11 -13
25 -20 19 -8 23 -8 18 0 -4 7 5 4 20 -5 14 -10 33 -18 42 -18 8 0 15 -5 15
-12 0 -6 3 -9 6 -6 8 9 175 -67 269 -122 22 -13 57 -32 78 -42 20 -10 37 -23
37 -29 0 -6 5 -7 10 -4 6 3 10 2 10 -2 0 -5 16 -17 35 -27 19 -11 35 -23 35
-28 0 -4 7 -8 15 -8 8 0 15 -4 15 -8 0 -5 11 -15 25 -22 13 -7 22 -18 18 -23
-3 -6 -1 -7 4 -4 11 7 152 -126 211 -198 17 -22 36 -45 41 -51 6 -7 7 -15 4
-18 -4 -3 -1 -6 5 -6 11 0 78 -110 74 -122 -1 -5 2 -8 7 -8 5 0 12 -10 16 -23
4 -12 8 -24 9 -27 41 -92 68 -185 70 -232 0 -10 3 -18 6 -18 3 0 7 -10 7 -22
8 -144 12 -170 29 -189 10 -11 26 -18 36 -16 10 3 18 1 18 -4 0 -5 12 -4 26 1
16 7 32 7 44 0 10 -5 25 -8 32 -5 25 10 113 12 131 3 11 -6 17 -5 17 2 0 6 5
8 12 4 7 -5 31 -7 53 -5 22 1 49 2 60 1 28 -1 83 1 125 4 19 1 43 -1 53 -6 11
-6 17 -5 17 2 0 6 5 8 12 4 14 -9 58 -12 58 -4 0 3 9 6 21 7 35 3 47 30 42 97
-3 34 -5 71 -5 84 0 12 -4 22 -9 22 -5 0 -8 3 -8 8 4 26 -2 92 -9 88 -4 -2 -6
13 -5 35 1 22 -1 38 -5 35 -4 -2 -8 14 -10 37 -5 86 -7 107 -13 107 -3 0 -5
14 -4 30 1 17 -2 33 -6 36 -4 2 -6 13 -4 24 2 11 0 20 -4 20 -4 0 -7 16 -6 35
1 20 -1 38 -5 40 -4 2 -7 25 -8 49 l-2 46 57 -7 c32 -4 73 -7 91 -7 17 0 32
-3 32 -6 0 -3 11 -5 25 -5 14 0 25 4 25 10 0 5 5 4 11 -2 6 -6 23 -8 45 -3 19
4 34 4 34 -1 0 -5 11 -5 24 1 16 6 28 5 36 -3 10 -9 11 -9 6 0 -5 10 5 13 38
13 25 0 46 3 46 8 0 4 17 6 37 6 21 -1 44 3 51 8 6 6 12 8 12 5 0 -3 21 1 48
9 26 8 54 16 62 18 8 2 41 15 73 29 31 14 57 24 57 21 0 -3 10 4 22 15 11 11
24 18 28 16 4 -3 13 2 20 10 7 8 16 15 21 15 5 0 17 7 26 15 10 8 22 16 27 18
19 4 223 197 210 197 -3 0 11 20 32 45 20 25 32 45 28 45 -5 0 -4 4 2 8 10 7
78 118 82 135 1 4 2 12 2 18 0 5 4 8 9 5 5 -4 8 2 6 11 -1 10 4 26 13 36 8 9
12 17 8 17 -3 0 0 13 9 29 8 17 16 38 18 48 1 10 6 24 10 30 5 7 6 13 3 13 -3
0 1 15 9 33 7 17 13 34 13 37 0 14 15 86 20 95 3 5 7 16 8 25 0 8 4 31 7 50 3
19 9 62 12 95 8 68 7 66 56 93 69 38 83 47 103 64 10 10 22 15 26 13 5 -3 11
2 14 11 4 9 9 14 12 11 6 -6 36 20 149 130 40 39 71 73 69 76 -3 3 6 14 20 25
15 11 26 27 26 36 0 9 4 16 9 16 11 0 98 175 105 210 2 14 7 32 10 40 9 25 17
71 21 133 3 33 7 63 11 68 3 5 2 9 -3 9 -4 0 -8 27 -7 60 0 33 -3 60 -6 60 -3
0 -6 14 -6 31 -2 33 -14 77 -45 167 -14 38 -16 58 -9 71 5 10 7 21 4 24 -3 3
2 19 11 36 8 17 13 31 9 31 -4 0 -1 6 5 14 6 8 11 18 10 22 -1 5 0 11 1 14 4
11 17 78 30 155 13 76 9 272 -7 339 -7 33 -11 66 -8 73 2 8 0 11 -5 8 -6 -3
-10 -2 -10 4 0 5 -5 22 -12 38 -6 15 -12 33 -13 38 -4 23 -30 75 -37 75 -4 0
-8 5 -8 10 0 18 -66 110 -73 103 -4 -3 -7 0 -7 8 0 8 -21 32 -46 54 -25 22
-54 47 -64 56 -30 28 -171 110 -210 124 -25 9 -40 19 -40 27 0 5 -18 45 -40
89 -21 43 -37 79 -34 79 3 0 -4 10 -16 22 -11 12 -20 25 -20 29 0 7 -36 67
-57 94 -5 6 -19 27 -33 47 -14 21 -28 38 -32 38 -5 0 -8 5 -8 10 0 22 -137
163 -225 233 -33 26 -65 51 -71 56 -6 5 -26 17 -45 26 -19 10 -36 21 -39 24
-8 10 -113 56 -118 53 -3 -2 -8 1 -11 7 -4 5 -19 12 -34 15 -14 2 -32 8 -39
13 -7 4 -22 9 -33 11 -24 4 -48 10 -55 12 -9 4 -25 7 -43 8 -18 2 -107 87
-107 103 0 5 -4 9 -9 9 -5 0 -25 15 -44 33 -55 52 -98 87 -107 87 -5 0 -10 3
-12 8 -7 17 -171 112 -193 112 -8 0 -15 5 -15 12 0 6 -3 8 -7 5 -3 -4 -12 -2
-19 3 -6 6 -23 13 -35 16 -30 7 -40 9 -59 17 -15 6 -83 18 -107 20 -7 0 -13 5
-13 11 0 7 -4 6 -11 -1 -6 -6 -24 -8 -42 -4 -18 4 -45 6 -62 5 -64 -4 -160
-17 -195 -27 -4 -1 -38 28 -74 66 -37 37 -73 67 -80 67 -8 0 -16 7 -20 15 -3
8 -12 15 -21 15 -8 0 -15 5 -15 11 0 6 -7 9 -15 5 -8 -3 -15 -1 -15 4 0 7 -37
20 -70 25 -3 0 -9 3 -15 7 -5 3 -28 7 -50 9 -22 1 -46 7 -52 12 -8 6 -13 6
-13 0 0 -11 -53 -11 -61 0 -3 4 -9 4 -12 0z m-17 -137 c0 20 171 4 220 -21 15
-8 30 -11 34 -8 3 4 6 1 6 -6 0 -7 4 -10 8 -7 5 3 15 -4 22 -15 8 -10 19 -19
25 -19 6 0 30 -20 54 -45 24 -25 40 -45 36 -45 -5 0 2 -8 13 -19 12 -10 22
-22 22 -26 0 -4 9 -19 20 -35 11 -15 17 -30 13 -34 -3 -3 0 -6 7 -6 7 0 10 -3
7 -7 -4 -3 -3 -11 2 -17 15 -18 69 -176 76 -223 3 -15 9 -48 14 -73 5 -25 7
-48 5 -52 -3 -5 -1 -8 5 -8 5 0 8 -9 6 -21 -2 -11 0 -31 5 -43 6 -16 5 -28 -3
-36 -7 -7 -7 -10 -1 -7 6 3 11 1 11 -6 0 -7 -9 -13 -19 -13 -10 0 -18 4 -18 9
0 4 -5 5 -11 2 -5 -4 -27 -8 -47 -10 -37 -2 -56 -8 -102 -28 -34 -14 -32 -14
-57 -22 -13 -4 -23 -12 -23 -17 0 -5 -4 -6 -10 -3 -5 3 -10 1 -10 -4 0 -6 -7
-11 -15 -11 -7 0 -18 -6 -22 -13 -4 -7 -25 -23 -45 -37 -21 -14 -38 -28 -38
-32 0 -5 -4 -8 -10 -8 -5 0 -25 -16 -45 -37 -39 -40 -45 -75 -18 -105 31 -34
70 -21 137 45 23 22 43 40 46 39 3 -1 15 8 28 18 12 11 27 20 32 20 6 0 13 7
16 15 4 8 14 15 23 15 9 0 25 7 35 15 10 8 23 12 27 9 5 -3 9 -1 9 4 0 5 6 9
13 9 6 0 23 3 36 7 18 6 22 5 15 -5 -6 -11 -5 -12 7 -2 21 17 85 -9 125 -51
19 -20 31 -36 27 -36 -3 0 1 -8 9 -17 8 -10 25 -49 37 -88 12 -38 25 -77 28
-85 5 -15 12 -75 17 -145 4 -51 23 -91 44 -93 31 -1 72 10 67 18 -3 5 -1 10 5
12 5 1 10 14 11 28 1 31 -9 136 -17 170 -3 14 -8 33 -10 43 -2 9 -6 25 -8 35
-8 33 -38 117 -52 144 -8 15 -14 30 -14 33 0 5 -7 13 -54 66 -19 22 -22 37
-31 139 -3 30 -7 73 -11 95 -3 22 -7 52 -7 68 -1 15 -5 27 -9 27 -5 0 -7 3 -6
8 1 4 -2 27 -7 52 -5 25 -8 48 -7 53 1 4 -3 7 -9 7 -6 0 -9 9 -6 20 3 11 1 20
-4 20 -5 0 -9 9 -9 19 0 11 -4 22 -10 26 -5 3 -7 12 -3 20 3 8 -1 15 -8 15 -7
0 -10 3 -6 6 3 3 -2 20 -12 37 -9 18 -17 39 -16 47 0 16 47 28 94 25 17 -2 31
1 31 6 0 5 6 6 13 4 6 -2 35 -6 62 -9 28 -3 64 -8 80 -11 17 -4 38 -7 48 -8 9
-1 17 -5 17 -9 0 -4 9 -8 20 -8 12 0 34 -7 49 -15 16 -8 31 -11 35 -8 3 4 6 1
6 -5 0 -7 9 -12 20 -12 11 0 20 -4 20 -9 0 -5 8 -11 18 -14 21 -7 71 -37 90
-55 7 -6 22 -17 33 -22 30 -17 189 -165 189 -177 0 -2 12 -17 28 -34 20 -22
42 -32 87 -40 33 -7 67 -14 75 -17 8 -3 24 -7 35 -9 19 -3 50 -15 87 -34 10
-5 25 -9 33 -9 8 0 15 -5 15 -11 0 -5 4 -8 9 -5 5 3 14 -1 21 -9 7 -8 16 -15
21 -15 13 0 109 -62 109 -71 0 -5 4 -9 10 -9 5 0 20 -8 32 -17 32 -26 158
-156 188 -194 14 -18 31 -38 38 -45 6 -7 12 -17 12 -23 0 -6 5 -11 10 -11 6 0
10 -7 10 -15 0 -8 5 -15 10 -15 6 0 10 -7 10 -15 0 -8 5 -15 10 -15 6 0 10 -7
10 -15 0 -8 5 -15 10 -15 6 0 10 -5 10 -10 0 -6 11 -27 23 -48 13 -20 22 -43
19 -51 -2 -8 0 -11 5 -8 5 3 22 -24 37 -61 41 -96 52 -111 96 -128 22 -9 42
-15 46 -14 4 1 10 -2 13 -7 3 -4 26 -19 51 -32 25 -14 51 -31 58 -38 8 -7 18
-11 23 -8 5 4 9 -2 9 -11 0 -10 3 -14 7 -11 3 4 23 -11 44 -32 20 -22 40 -37
43 -34 3 4 6 -1 6 -9 0 -9 7 -18 15 -22 8 -3 15 -12 15 -21 0 -8 4 -15 9 -15
11 0 59 -83 67 -117 4 -12 10 -21 14 -18 5 3 6 -3 3 -14 -3 -10 0 -22 6 -25 6
-4 11 -20 11 -37 0 -16 4 -29 10 -29 5 0 7 -6 4 -14 -3 -8 0 -24 6 -36 8 -15
8 -20 1 -16 -6 4 -11 2 -11 -3 0 -6 3 -11 8 -11 9 0 9 -171 -1 -187 -5 -8 -3
-13 3 -13 7 0 8 -5 3 -12 -4 -7 -9 -22 -9 -33 -4 -44 -17 -111 -24 -120 -4 -5
-6 -18 -5 -27 2 -10 0 -18 -4 -18 -4 0 -8 -6 -8 -12 -1 -50 -28 -102 -78 -152
-30 -30 -55 -52 -55 -49 0 3 -13 -8 -29 -25 -16 -16 -32 -28 -35 -24 -3 3 -6
0 -6 -7 0 -7 -4 -10 -9 -6 -5 3 -13 1 -16 -5 -11 -17 -100 -57 -123 -55 -12 1
-22 -2 -22 -7 0 -5 -5 -6 -10 -3 -6 4 -23 9 -38 11 -15 3 -28 9 -30 15 -2 5
-8 9 -14 9 -14 0 -58 47 -50 54 3 3 1 6 -5 6 -6 0 -13 8 -16 18 -4 9 -13 35
-22 57 -18 46 -20 54 -35 114 -6 24 -9 50 -6 58 3 7 1 13 -5 13 -6 0 -9 6 -6
14 3 8 -7 25 -22 38 -21 20 -32 23 -51 16 -52 -19 -58 -64 -25 -198 2 -8 4
-15 5 -15 1 0 3 -8 5 -17 6 -33 39 -113 49 -120 6 -4 8 -10 4 -13 -3 -4 1 -16
10 -27 9 -11 25 -29 35 -40 9 -12 17 -25 17 -30 0 -4 7 -8 15 -8 8 0 15 -4 15
-8 0 -9 62 -47 73 -44 4 1 7 -2 7 -6 0 -5 6 -9 13 -10 6 0 38 -3 69 -5 32 -3
60 -1 63 3 3 5 14 7 25 5 11 -2 20 0 20 6 0 5 9 9 20 9 11 0 20 4 20 10 0 5 3
9 8 8 11 -4 72 26 72 35 0 5 5 5 10 2 6 -3 10 -2 10 2 0 5 12 16 28 26 15 9
45 32 67 52 42 37 50 34 59 -16 3 -13 5 -24 6 -24 2 0 6 -21 13 -62 3 -17 8
-37 12 -42 3 -6 1 -11 -5 -11 -6 0 -8 -5 -4 -12 12 -20 12 -107 -1 -175 -7
-35 -10 -65 -7 -68 3 -3 0 -5 -7 -5 -7 0 -10 -4 -7 -9 3 -5 -8 -40 -25 -78
-17 -37 -30 -70 -29 -72 1 -2 -2 -7 -7 -10 -4 -3 -20 -25 -35 -48 -15 -22 -39
-53 -53 -67 -14 -14 -23 -26 -20 -26 8 0 -100 -95 -147 -130 -21 -15 -34 -31
-30 -36 4 -5 3 -6 -2 -2 -5 4 -27 -5 -50 -21 -55 -38 -86 -47 -86 -27 0 9 -5
16 -11 16 -5 0 -8 4 -5 8 3 5 -6 30 -19 55 -13 26 -21 47 -18 47 4 0 -1 8 -9
18 -8 9 -22 34 -32 54 -9 20 -22 43 -29 50 -6 8 -19 25 -27 40 -19 33 -74 101
-120 147 -19 20 -33 39 -32 43 1 5 -1 7 -6 5 -6 -2 -95 64 -112 84 -3 3 -12 9
-20 12 -8 4 -44 23 -79 42 -35 19 -70 35 -77 35 -8 0 -14 5 -14 12 0 6 -3 9
-6 5 -4 -3 -23 1 -43 9 -20 9 -45 17 -56 20 -11 2 -31 6 -45 9 -99 21 -143 26
-225 27 -61 0 -71 -3 -84 -22 -22 -33 -20 -57 5 -81 19 -18 35 -21 103 -22 45
0 81 -3 81 -7 0 -3 12 -5 28 -5 15 1 31 -1 37 -4 5 -3 16 -6 25 -8 67 -12 86
-17 90 -24 3 -5 15 -10 25 -12 11 -2 30 -9 43 -15 12 -7 22 -10 22 -7 0 4 14
-3 30 -15 17 -12 30 -18 30 -13 0 4 4 3 8 -2 4 -6 27 -24 51 -40 25 -17 62
-47 83 -67 21 -21 38 -34 38 -31 0 3 16 -15 35 -41 20 -25 40 -46 45 -46 6 0
10 -7 10 -15 0 -8 5 -15 10 -15 6 0 10 -5 10 -10 0 -6 14 -29 30 -52 17 -22
30 -47 30 -53 0 -7 7 -18 15 -25 8 -7 12 -16 9 -21 -3 -5 -1 -9 3 -9 7 0 30
-49 38 -80 1 -3 5 -14 9 -25 4 -11 12 -32 18 -47 12 -32 8 -110 -7 -120 -6 -5
-5 -8 3 -8 7 0 10 -5 6 -11 -4 -6 -8 -23 -10 -38 -10 -89 -17 -130 -23 -127
-3 2 -7 -10 -7 -27 -2 -42 -63 -230 -78 -239 -6 -4 -7 -8 -3 -8 4 0 2 -10 -5
-23 -6 -12 -13 -28 -14 -36 -2 -8 -8 -17 -14 -21 -7 -4 -11 -11 -11 -16 1 -5
-5 -16 -12 -24 -7 -8 -14 -19 -16 -25 -12 -33 -17 -42 -38 -65 -13 -14 -23
-29 -23 -34 0 -14 -177 -184 -199 -191 -12 -3 -21 -11 -21 -16 0 -5 -6 -9 -14
-9 -8 0 -16 -4 -18 -8 -4 -11 -120 -67 -132 -63 -5 1 -12 -2 -15 -6 -6 -9
-105 -42 -147 -49 -13 -2 -36 -7 -51 -10 -91 -18 -302 -24 -322 -9 -11 7 -13
7 -7 -2 4 -7 2 -13 -3 -13 -6 0 -11 3 -11 8 0 4 -17 8 -38 9 -20 1 -53 4 -72
7 -115 18 -136 18 -154 0 -15 -15 -17 -28 -12 -78 10 -102 21 -164 30 -173 3
-3 1 -16 -5 -30 -6 -16 -6 -22 1 -18 6 4 11 -8 12 -27 1 -31 3 -46 8 -58 4
-12 10 -49 14 -95 3 -27 6 -50 6 -50 2 0 9 -36 15 -75 2 -19 7 -46 10 -60 3
-14 7 -41 10 -60 3 -19 7 -44 9 -55 4 -20 -1 -20 -253 -20 -141 0 -261 3 -267
7 -6 4 -12 31 -13 60 -1 29 -5 55 -9 58 -4 3 -7 14 -8 25 -1 11 -4 36 -8 55
-4 19 -10 47 -13 62 -3 15 -8 26 -12 24 -4 -3 -8 3 -9 12 -4 36 -8 51 -20 64
-6 8 -9 18 -5 22 4 4 3 10 -2 14 -6 4 -21 30 -35 57 -30 59 -95 161 -123 192
-11 13 -18 23 -14 23 3 0 -9 16 -28 35 -19 19 -35 39 -35 45 0 5 -6 10 -12 10
-7 0 -22 13 -33 29 -10 16 -23 27 -27 25 -4 -3 -8 2 -8 10 0 9 -5 16 -11 16
-7 0 -21 10 -33 22 -37 38 -85 78 -95 78 -5 0 -11 4 -13 9 -4 12 -183 131
-197 131 -6 0 -11 3 -11 8 0 4 -14 13 -31 21 -17 7 -63 31 -102 53 -40 21 -72
39 -72 38 0 -1 -13 4 -30 11 -16 7 -33 12 -37 11 -5 -1 -8 3 -8 9 0 5 -4 8 -9
4 -5 -3 -15 0 -23 7 -7 7 -24 15 -38 17 -14 1 -27 6 -30 10 -5 6 -79 31 -97
32 -5 0 -12 4 -18 9 -5 4 -27 11 -47 15 -21 4 -38 11 -38 17 0 5 -4 6 -10 3
-6 -3 -16 -3 -22 2 -13 8 -28 12 -63 16 -23 2 -45 20 -45 36 0 6 -3 11 -7 11
-8 0 -28 31 -74 118 -16 29 -23 49 -16 45 7 -4 7 -1 -2 10 -7 9 -10 17 -7 17
4 0 4 6 -1 13 -11 18 -12 36 -2 42 4 3 4 16 -1 30 -7 18 -6 25 3 25 9 0 9 2 0
8 -13 8 -13 119 1 141 7 11 6 12 -5 6 -11 -7 -12 -6 -3 6 5 8 9 24 8 36 0 13
2 23 7 23 5 0 6 7 3 15 -4 8 -2 15 4 15 9 0 25 37 23 53 -1 4 4 7 9 7 6 0 10
5 10 11 0 23 111 115 124 102 3 -3 6 -1 6 5 0 7 7 12 15 12 8 0 15 4 15 9 0 6
9 8 20 6 11 -2 20 -1 20 3 0 4 8 8 18 9 9 1 38 6 64 11 39 8 252 9 283 2 23
-6 35 2 51 31 13 26 14 36 3 55 -7 13 -18 24 -26 24 -7 0 -13 4 -13 8 0 4 -21
7 -47 7 -27 0 -52 2 -58 4 -13 7 -135 7 -135 1 0 -3 -18 -5 -40 -4 -22 0 -40
-2 -40 -6 0 -4 -10 -6 -22 -5 -13 1 -27 0 -33 -4 -5 -3 -16 -6 -23 -7 -8 -2
-21 -6 -30 -10 -9 -4 -26 -9 -36 -11 -11 -2 -27 -10 -36 -18 -9 -8 -24 -15
-34 -15 -9 0 -19 -7 -22 -15 -4 -8 -12 -15 -19 -15 -22 0 -101 -88 -133 -148
-34 -63 -53 -127 -55 -184 -1 -21 -4 -38 -7 -38 -3 0 -4 -17 -3 -37 1 -21 3
-74 4 -118 1 -44 6 -93 11 -110 22 -77 32 -102 59 -147 27 -46 37 -69 23 -55
-3 3 -17 2 -30 -3 -13 -5 -25 -6 -28 -2 -3 5 -17 8 -33 7 -15 0 -31 4 -35 10
-5 6 -8 5 -8 -4 0 -10 -3 -11 -14 -2 -8 6 -18 11 -22 10 -5 -1 -11 0 -14 1 -3
1 -12 3 -20 5 -38 8 -132 48 -165 70 -20 14 -40 25 -45 25 -6 0 -10 7 -10 16
0 8 -4 13 -9 10 -5 -3 -23 9 -39 28 -17 19 -33 32 -36 29 -3 -4 -6 -2 -6 3 0
6 -9 20 -21 33 -29 30 -107 148 -114 172 -4 10 -11 19 -17 19 -6 0 -9 3 -5 6
3 4 -3 24 -14 45 -11 22 -16 39 -12 39 5 0 2 4 -5 9 -7 4 -14 18 -15 29 -1 12
-6 22 -11 22 -5 0 -6 3 -3 7 4 3 2 12 -4 20 -6 7 -8 13 -4 13 4 0 2 7 -5 15
-7 8 -10 15 -6 15 3 0 1 12 -5 28 -6 15 -13 38 -15 52 -3 14 -8 34 -11 45 -4
11 -8 28 -9 38 -1 9 -3 18 -4 20 -1 1 -3 13 -4 27 0 14 -5 31 -10 39 -7 10 -6
12 3 6 10 -6 11 -3 2 12 -11 22 -10 85 1 94 12 8 16 108 6 153 -10 49 -11 52
-28 91 -7 17 -13 33 -12 38 1 4 -3 7 -9 7 -5 0 -15 13 -20 30 -6 16 -19 32
-30 35 -10 4 -19 11 -19 16 0 6 -8 6 -20 -1 -11 -6 -20 -8 -20 -5 0 4 -7 0
-15 -8 -19 -19 -30 -67 -18 -76 5 -3 24 -35 40 -70 39 -80 42 -166 10 -221
-19 -32 -87 -107 -87 -95 0 3 -8 -2 -17 -10 -10 -8 -22 -15 -28 -16 -5 0 -18
-8 -27 -16 -10 -9 -18 -13 -18 -10 0 3 -12 0 -27 -8 -15 -8 -30 -12 -35 -9 -4
3 -8 0 -8 -6 0 -6 -4 -9 -8 -6 -5 3 -30 -1 -56 -9 -25 -8 -53 -12 -61 -9 -8 4
-15 2 -15 -2 0 -5 -60 -8 -132 -8 -73 1 -133 3 -133 4 0 3 -38 9 -70 12 -16 1
-34 4 -40 7 -11 6 -29 10 -67 13 -15 1 -24 6 -22 10 3 4 -4 8 -14 8 -11 0 -36
7 -56 15 -20 8 -36 12 -36 8 0 -5 -4 -3 -8 2 -4 6 -32 21 -62 35 -62 28 -163
89 -168 102 -2 4 -8 6 -13 2 -5 -3 -9 0 -9 5 0 6 -8 11 -17 11 -9 0 -14 3 -10
6 3 4 -15 23 -41 44 -47 37 -138 136 -156 168 -5 9 -12 19 -15 22 -10 8 -38
54 -39 64 0 5 -4 12 -9 15 -18 13 -84 166 -76 175 4 3 2 6 -4 6 -9 0 -15 16
-28 75 -1 6 -3 12 -4 15 -6 12 -11 37 -25 120 -3 14 -5 25 -6 25 -5 0 -12 121
-12 225 -1 130 5 204 23 274 5 23 12 55 15 71 3 17 11 33 16 36 6 4 7 12 4 18
-4 6 -2 11 5 11 7 0 10 3 7 6 -7 7 26 81 62 139 39 64 87 124 94 118 3 -4 6 0
6 7 0 13 9 22 88 88 47 39 53 43 141 90 33 18 61 29 61 25 0 -4 7 2 15 13 8
10 15 15 15 11 0 -4 10 -2 23 5 12 7 26 11 31 10 4 -2 13 1 20 6 12 10 76 27
89 24 4 -1 7 2 7 7 0 6 8 10 18 9 9 0 28 3 42 5 57 12 107 20 136 22 17 1 35
4 40 7 5 3 29 4 54 3 25 -1 50 1 55 4 15 8 35 10 35 3 0 -11 92 -5 123 7 16 6
25 15 22 21 -3 5 -2 10 4 10 10 0 9 11 -3 47 -13 39 -91 46 -301 28 -44 -4
-92 -8 -108 -9 -15 0 -27 -4 -27 -7 0 -3 -6 -6 -14 -6 -23 0 -140 -26 -151
-33 -5 -4 -22 -10 -37 -14 -15 -3 -40 -11 -55 -18 -15 -6 -30 -12 -33 -13 -27
-7 -56 -19 -60 -25 -3 -4 -14 -10 -25 -14 -16 -5 -21 -2 -21 14 0 11 5 20 10
20 5 0 7 3 4 6 -4 3 0 20 7 39 8 18 11 35 8 39 -4 3 0 6 7 6 7 0 11 3 7 6 -3
3 5 24 19 45 13 21 21 39 18 39 -4 0 1 9 11 20 10 11 15 20 11 20 -4 0 -1 6 6
14 26 27 48 56 48 63 0 12 113 118 160 150 61 41 126 74 134 66 3 -4 6 -2 6 4
0 6 12 14 28 18 15 5 32 9 37 11 6 1 25 7 43 13 17 5 32 7 32 4 0 -3 6 -1 13
4 6 5 27 9 45 9 17 -1 32 1 32 4 0 3 24 6 52 5 34 0 59 5 69 15 19 17 30 90
14 90 -6 0 -6 3 1 8 6 4 11 14 12 22 1 34 12 62 40 102 31 44 92 107 92 95 0
-4 9 2 19 12 40 40 157 86 241 96 14 1 30 4 35 5 6 1 12 1 15 0 3 -1 23 -3 44
-6 22 -2 57 -13 78 -24 44 -23 90 -65 81 -74 -4 -3 -2 -6 4 -6 6 0 20 -18 31
-40 10 -22 15 -37 9 -33 -6 4 -7 1 -1 -8 14 -23 16 -39 21 -159 4 -96 8 -119
26 -145 30 -42 84 -95 97 -95 6 0 9 -4 6 -8 -3 -5 7 -15 22 -23 57 -29 57 -34
18 -109 -36 -67 -84 -185 -92 -225 -26 -121 -24 -250 3 -315 3 -8 5 -21 4 -27
-1 -7 3 -13 10 -13 6 0 9 -6 6 -14 -3 -8 1 -20 9 -26 8 -7 14 -16 14 -21 0 -5
10 -20 22 -34 26 -31 64 -32 94 -4 25 24 22 47 -15 113 -12 21 -23 51 -24 67
-1 16 -5 29 -9 29 -11 0 -6 172 5 195 6 11 12 29 13 40 3 30 9 48 22 71 6 12
8 24 5 28 -3 3 -1 6 6 6 7 0 10 4 6 9 -3 6 2 14 11 19 9 5 15 12 15 15 -3 23
1 37 12 49 7 7 18 22 24 33 10 18 22 20 110 20 60 1 107 6 122 14 13 7 21 8
17 3 -3 -6 19 3 49 20 30 16 57 34 61 39 3 5 10 7 15 4 5 -4 9 -2 9 4 0 12 54
39 94 48 73 15 156 -3 199 -42 15 -14 27 -23 27 -20 0 3 10 -1 21 -9 19 -13
25 -13 50 -1 34 18 45 50 29 80 -13 25 -100 92 -100 78 0 -4 -4 -2 -8 5 -5 7
-22 15 -37 18 -16 3 -34 9 -40 13 -16 13 -166 5 -205 -10 -19 -7 -38 -12 -42
-11 -5 1 -8 -2 -8 -7 0 -5 -8 -12 -19 -16 -10 -3 -31 -16 -47 -30 -15 -13 -31
-22 -35 -19 -4 2 -9 -1 -11 -6 -2 -6 -12 -13 -23 -15 -11 -2 -20 -4 -20 -5 0
-5 -49 -11 -97 -11 -68 0 -159 39 -223 95 -22 20 -43 36 -46 36 -13 0 -21 46
-24 130 -2 47 -4 85 -5 85 -1 0 -3 11 -5 25 -7 54 -17 86 -41 133 l-24 48 35
32 c84 76 166 138 176 132 4 -3 10 2 13 11 3 8 10 12 16 9 5 -3 10 -1 10 4 0
6 7 11 15 11 8 0 15 5 15 11 0 5 5 7 10 4 6 -3 10 -1 10 6 0 7 3 10 6 6 3 -3
21 3 40 14 58 32 204 80 252 82 6 0 12 3 12 7 0 4 18 6 39 6 22 -1 37 2 35 6
-3 5 19 9 48 9 82 2 92 3 106 12 6 5 12 4 12 0 0 -5 9 -9 20 -10 13 -1 18 2
14 9 -4 7 -2 8 5 4 6 -4 51 -10 99 -12 84 -5 137 -10 137 -14 0 -1 14 -4 30
-6 17 -2 62 -11 100 -21 39 -10 75 -18 80 -18 6 0 13 -4 17 -9 9 -14 70 -9 79
6 5 7 9 9 9 4 0 -5 7 -3 15 4 8 7 15 9 15 4 0 -5 4 -4 8 1 9 13 99 55 117 55
8 0 15 5 15 12 0 6 3 9 6 5 3 -3 27 1 54 9 26 8 59 15 74 16 14 1 26 7 26 13
0 5 5 3 10 -5 5 -8 10 -10 10 -4z"/>
<path d="M5768 4850 c-20 -11 -40 -24 -43 -30 -4 -6 -11 -8 -16 -5 -5 4 -9 2
-9 -3 0 -4 -18 -18 -40 -31 -22 -12 -40 -26 -40 -32 0 -5 -3 -8 -8 -6 -9 2
-24 -10 -103 -85 -33 -32 -64 -58 -68 -58 -8 0 -20 31 -20 53 -1 22 -110 128
-140 135 -6 1 -19 4 -29 6 -9 1 -24 6 -32 9 -29 12 -190 -9 -190 -24 0 -5 -7
-9 -16 -9 -8 0 -25 -5 -37 -12 -12 -7 -27 -13 -33 -14 -24 -4 -145 -87 -156
-108 -15 -27 -11 -58 10 -71 29 -17 57 -22 69 -12 67 51 245 133 263 122 6 -3
10 -2 10 2 0 5 9 9 20 9 11 0 20 -4 20 -7 0 -4 11 -6 25 -3 14 2 25 0 25 -6 0
-6 4 -9 9 -5 10 6 62 -52 62 -70 1 -5 6 -16 12 -23 6 -7 11 -26 12 -40 1 -15
4 -32 7 -38 11 -17 -1 -155 -17 -201 -2 -6 0 -25 4 -41 5 -16 5 -36 -1 -45 -6
-11 -5 -17 2 -17 5 0 10 -11 10 -25 0 -14 4 -25 8 -25 4 0 8 -10 9 -21 2 -26
28 -83 55 -121 11 -16 17 -28 14 -28 -4 0 6 -13 20 -29 14 -16 24 -31 23 -33
-5 -4 146 -152 184 -181 16 -12 38 -29 47 -39 10 -9 20 -14 23 -12 2 2 10 -2
17 -11 13 -16 95 -22 86 -6 -3 5 0 11 8 14 9 4 13 18 12 36 -2 28 -27 56 -76
86 -18 11 -35 25 -86 72 -19 18 -47 42 -61 53 -14 11 -22 20 -18 20 4 0 -4 11
-19 25 -14 13 -26 29 -26 35 0 5 -4 10 -9 10 -5 0 -14 14 -21 30 -7 17 -17 30
-23 30 -6 0 -7 3 -4 7 4 3 1 13 -6 22 -33 39 -57 219 -34 249 5 6 7 12 3 12
-4 0 1 11 10 25 9 14 13 25 9 25 -5 0 -1 8 8 18 8 9 17 23 19 31 2 8 10 22 18
31 56 63 92 99 120 121 17 13 38 30 45 36 19 18 177 113 187 113 5 0 7 4 3 9
-3 5 -1 12 5 16 6 4 8 11 5 16 -4 5 -1 9 5 9 6 0 2 14 -10 30 -25 36 -57 38
-112 10z"/>
<path d="M3611 4783 c-12 -8 -19 -19 -16 -24 4 -5 1 -9 -5 -9 -7 0 -9 -8 -5
-21 18 -55 30 -239 16 -239 -4 0 -7 -10 -6 -22 3 -42 -61 -143 -111 -176 -25
-16 -84 -43 -103 -47 -39 -8 -46 -11 -53 -20 -4 -5 -11 -10 -15 -10 -4 0 -21
-9 -38 -20 -85 -56 -155 -160 -162 -243 -2 -26 -5 -59 -7 -74 -2 -16 2 -28 8
-28 7 0 7 -3 -2 -8 -15 -10 35 -58 58 -56 46 3 59 27 65 114 2 25 5 52 8 60 3
8 8 25 12 38 4 12 11 22 15 22 5 0 11 8 14 18 3 9 23 28 43 42 21 14 41 29 44
33 3 5 9 8 13 8 22 -4 132 39 165 64 37 28 120 119 115 126 -3 5 -1 9 3 9 5 0
13 10 18 22 10 23 41 33 51 17 3 -5 10 -7 15 -4 8 5 49 -1 138 -19 42 -9 161
-59 161 -68 0 -4 7 -8 15 -8 8 0 27 -10 41 -22 58 -50 84 -77 84 -86 0 -6 4
-12 9 -14 5 -1 11 -10 13 -18 2 -8 8 -18 13 -22 6 -4 10 -11 11 -15 3 -30 37
-77 48 -66 3 4 6 2 6 -4 0 -13 40 -4 56 12 37 37 5 133 -78 231 -41 48 -135
121 -150 116 -5 -1 -8 2 -8 8 0 5 -5 10 -12 10 -6 0 -20 8 -31 18 -11 9 -17
11 -13 5 5 -9 2 -11 -8 -7 -9 3 -16 11 -16 17 0 6 -3 8 -6 4 -4 -3 -19 0 -34
8 -15 8 -30 11 -33 8 -4 -3 -12 -1 -20 5 -7 6 -35 14 -62 17 -28 4 -54 10 -60
13 -5 4 -21 7 -35 8 -14 0 -30 2 -36 2 -7 1 -11 28 -11 70 -1 92 -10 166 -22
170 -5 2 -8 9 -6 15 13 36 -57 66 -94 40z"/>
<path d="M940 4549 c0 -5 -6 -8 -12 -6 -7 1 -12 -4 -10 -10 1 -7 -2 -13 -6
-13 -4 0 -9 -10 -10 -22 -2 -26 65 -168 79 -168 5 0 9 -6 9 -13 0 -7 16 -32
36 -55 19 -23 33 -42 31 -42 -5 0 75 -79 156 -154 26 -24 47 -42 47 -39 0 3 7
0 15 -7 14 -12 14 -15 -1 -31 -10 -11 -14 -19 -11 -19 4 0 -5 -17 -18 -37 -77
-119 -138 -184 -195 -210 -38 -17 -100 -24 -100 -11 0 4 -3 7 -7 6 -13 -3 -73
32 -73 42 0 6 -6 10 -13 10 -7 0 -19 10 -27 21 -8 12 -22 29 -31 38 -9 9 -20
26 -23 38 -8 24 -37 36 -71 29 -11 -3 -23 -5 -27 -5 -5 -1 -8 -8 -8 -16 0 -8
-4 -15 -9 -15 -16 0 11 -80 30 -91 11 -5 19 -15 19 -22 0 -7 9 -19 19 -27 11
-7 18 -17 15 -22 -3 -4 -1 -8 5 -8 6 0 21 -10 35 -22 44 -42 86 -66 121 -73
11 -2 20 -4 20 -5 0 -10 91 -8 103 2 12 10 14 10 8 1 -4 -7 -2 -13 3 -13 6 0
11 4 11 10 0 5 3 9 8 8 14 -4 57 15 89 38 17 13 37 24 43 24 6 0 9 3 7 8 -6 9
19 33 27 25 3 -4 6 -2 6 4 0 6 16 27 35 47 19 20 33 38 32 39 -1 1 13 25 31
52 18 28 33 55 34 60 1 6 10 19 20 29 17 19 18 19 60 0 24 -10 46 -23 50 -29
4 -5 8 -7 8 -2 0 4 13 1 29 -8 17 -8 40 -17 53 -19 13 -3 25 -5 28 -6 3 -2 8
-2 13 -1 4 0 7 -4 7 -9 0 -5 3 -9 8 -8 13 3 92 -14 96 -21 3 -4 21 -6 40 -6
20 1 36 -1 36 -4 0 -6 7 -7 108 -14 28 -2 55 -7 59 -10 3 -4 12 -2 20 4 7 6
13 8 13 3 0 -19 309 -1 347 20 15 8 24 15 19 16 -5 0 -3 6 3 14 14 17 -1 54
-28 70 -20 12 -67 15 -83 5 -6 -4 -21 -3 -31 3 -12 6 -17 6 -13 0 9 -15 -257
-13 -266 2 -6 8 -8 7 -8 -2 0 -7 -3 -11 -7 -9 -5 3 -33 8 -63 12 -30 4 -81 13
-112 20 -32 7 -58 11 -58 8 0 -3 -7 0 -15 7 -8 6 -19 9 -24 6 -5 -4 -12 -2
-15 3 -3 5 -22 12 -41 15 -19 4 -35 11 -35 17 0 6 -4 8 -10 4 -9 -6 -50 13
-61 28 -3 5 -9 8 -13 7 -12 -3 -66 25 -66 33 0 5 -4 5 -10 2 -5 -3 -10 -2 -10
3 0 6 -13 15 -30 21 -16 5 -30 15 -30 20 0 6 -7 11 -15 11 -8 0 -19 9 -25 20
-6 11 -17 20 -24 20 -8 0 -16 7 -20 15 -3 8 -12 15 -21 15 -8 0 -15 5 -15 11
0 6 -18 28 -40 49 -22 21 -40 43 -40 49 0 7 -4 9 -10 6 -5 -3 -10 1 -10 9 0 8
-7 19 -16 24 -9 5 -16 12 -15 15 1 11 -34 67 -41 67 -5 0 -8 5 -8 12 0 10 -39
98 -43 98 -1 0 -17 4 -35 9 -20 6 -32 6 -32 0z"/>
<path d="M3600 3479 c0 -7 -3 -10 -6 -6 -11 10 -39 -25 -41 -52 -2 -26 20 -53
65 -78 12 -7 32 -19 44 -25 25 -15 42 -27 63 -46 8 -7 15 -11 15 -8 0 22 184
-165 201 -204 8 -16 18 -30 23 -30 4 0 6 -7 2 -15 -3 -8 -1 -15 3 -15 5 0 12
-7 15 -16 4 -10 2 -13 -7 -8 -9 6 -9 4 1 -8 7 -8 14 -31 15 -49 2 -19 6 -40
11 -47 4 -6 3 -12 -1 -12 -5 0 -9 -10 -10 -22 -3 -56 -36 -148 -54 -148 -5 0
-8 -4 -5 -9 3 -5 -3 -20 -14 -34 -11 -14 -20 -28 -20 -31 0 -4 -14 -20 -30
-36 -17 -17 -28 -30 -25 -30 3 0 -5 -10 -18 -22 -14 -13 -43 -40 -65 -60 -23
-21 -44 -38 -47 -38 -5 0 -20 -12 -77 -64 -31 -28 -36 -38 -32 -62 9 -49 74
-67 106 -29 10 11 17 17 18 13 0 -8 28 13 67 49 13 12 23 20 23 17 0 -6 137
132 162 163 26 34 88 133 83 133 -3 0 1 10 9 23 14 22 31 76 28 90 -1 4 2 7 6
7 5 0 9 12 9 28 1 15 3 46 6 70 2 23 1 42 -2 42 -4 0 -7 18 -6 40 1 22 -2 40
-7 40 -7 0 -3 111 5 140 2 8 8 29 12 46 8 34 48 86 80 102 25 13 125 8 153 -7
12 -6 22 -9 22 -6 0 3 15 -2 33 -12 17 -9 36 -17 40 -18 4 0 12 -7 17 -15 5
-8 10 -11 10 -7 0 5 15 -2 32 -15 71 -51 93 -55 128 -25 23 19 26 56 8 79 -26
31 -175 118 -204 118 -8 0 -14 5 -14 12 0 6 -3 9 -6 5 -3 -3 -18 -1 -33 5 -64
24 -195 28 -217 5 -4 -4 -13 -7 -21 -7 -12 0 -38 -18 -67 -46 -22 -22 -56 -64
-56 -70 0 -3 -7 -21 -16 -40 l-16 -34 -65 65 c-36 36 -69 65 -74 65 -4 0 -20
12 -34 27 -14 15 -25 24 -25 20 0 -4 -10 1 -22 13 -12 11 -28 20 -35 20 -7 0
-13 5 -13 10 0 6 -7 10 -15 10 -8 0 -15 5 -15 10 0 6 -7 10 -15 10 -8 0 -15 5
-15 12 0 6 -3 9 -6 5 -4 -3 -19 0 -35 9 -21 10 -29 11 -29 3z"/>
<path d="M5380 2820 c-29 -36 -30 -41 -12 -100 20 -68 21 -70 38 -195 8 -60 4
-152 -10 -212 -10 -44 -51 -123 -64 -123 -7 0 -11 -4 -7 -9 5 -9 -74 -70 -98
-75 -7 -2 -20 -6 -29 -9 -46 -17 -55 -20 -78 -22 -96 -9 -222 -5 -305 11 -25
5 -65 -33 -65 -63 0 -28 21 -53 44 -53 8 0 17 -4 20 -9 4 -5 14 -8 24 -6 9 1
25 -2 35 -7 11 -6 17 -5 17 2 0 6 5 8 12 4 15 -10 208 -13 208 -4 0 4 10 6 23
5 21 -2 76 10 107 22 8 3 18 5 23 5 4 -1 7 3 7 8 0 6 7 10 16 10 9 0 37 15 62
33 52 35 77 57 67 57 -3 0 4 10 17 23 24 22 53 75 50 90 -1 4 2 7 8 7 5 0 12
17 16 38 4 20 9 41 12 47 16 27 23 235 8 235 -6 0 -5 4 3 9 8 5 9 11 3 15 -5
3 -8 19 -7 36 1 17 -1 33 -6 36 -5 3 -9 18 -9 33 0 16 -7 47 -15 70 -8 23 -14
42 -14 44 1 1 -5 14 -12 30 -8 18 -20 27 -35 27 -12 0 -24 5 -26 10 -2 6 -14
-3 -28 -20z"/>
</g>
</svg>
